<svg xmlns="http://www.w3.org/2000/svg" width="21.5" height="21.5" viewBox="0 0 21.5 21.5"><g transform="translate(-0.001 0)"><path d="M20.834,19.659a1.038,1.038,0,1,1-1.468,1.468q-4.223-4.535-8.445-9.073l-.32-.342Q6.183,16.456,1.767,21.2a1.093,1.093,0,0,1-1.483.016A1.1,1.1,0,0,1,.3,19.733Q5.06,15.3,9.817,10.875s-1.536-1.656-2.2-2.367A3.9,3.9,0,0,1,2.393,7.492C.909,5.694-.372,2.478.868,1.162,2.186-.079,5.4,1.2,7.2,2.688A3.894,3.894,0,0,1,8.213,7.913q1.2,1.115,2.395,2.228l0,0s.05.039,0,0l2.24-2.085a2.83,2.83,0,0,1,.813-3.449C14.835,3.622,19.188-.116,19.3,0S16.368,3,14.329,5.05l.34.34C16.846,3.481,19.92.619,20.038.736s-2.841,3.1-4.814,5.21l.338.337c2.111-1.975,5.091-4.933,5.206-4.817s-2.745,3.192-4.654,5.369l.338.337C18.5,5.133,21.381,2.08,21.5,2.2s-4.6,5.64-4.6,5.648,1-1.176,0,0a2.72,2.72,0,0,1-3.448.815l-2.059,2.212Z" transform="translate(0)" fill="#8cb92f"/></g></svg>