<svg xmlns="http://www.w3.org/2000/svg" width="36.606" height="23.837" viewBox="0 0 36.606 23.837"><rect width="31.205" height="2.993" transform="translate(5.401 20.844)" fill="#002a44"/><path d="M95.107,265.831a2.284,2.284,0,0,0-.627-.6,20.478,20.478,0,0,0-4.956-1.134c-2.7,0-4.724,1.055-6.975,2.391l-2.79,1.655a.05.05,0,0,1-.031.006l-9.789-1.68a.793.793,0,0,0-.464.059l-1.556.7a.492.492,0,0,0-.01.891l6.473,3.126a.047.047,0,0,1,0,.081l-6.716,3.984-.1.059a5.817,5.817,0,0,1-4.19.634l-3.464-.784a.958.958,0,0,0-.531.02.883.883,0,0,0-.3,1.483l3.889,3.566a2.141,2.141,0,0,0,2.251.406l1.931-.785,10.991-4.627,15.531-6.537C95.217,268.128,95.814,266.86,95.107,265.831Z" transform="translate(-58.797 -264.1)" fill="#002a44"/><path d="M403.405,493.52l-4.606,1.927-.872,3.813a.358.358,0,0,0,.347.438l.452,0a1.8,1.8,0,0,0,1.531-.832Z" transform="translate(-381.124 -482.159)" fill="#002a44"/></svg>