<svg xmlns="http://www.w3.org/2000/svg" width="55.699" height="22.133" viewBox="0 0 55.699 22.133"><text transform="translate(27 15.978)" fill="#8cb92f" font-size="12" font-family="SegoeUI, Segoe UI"><tspan x="0" y="0">+</tspan></text><g transform="translate(0 3)"><path d="M18.16.528a1.8,1.8,0,0,0-2.575.026L11.756,4.543,2.414,1.452.453,3.413,8.24,8.208,4.3,12.313,1.773,11.9,0,13.671l3.715,1.3,1.3,3.715,1.773-1.773-.415-2.527,4.106-3.94,4.795,7.787,1.961-1.961L14.144,6.931,18.133,3.1A1.8,1.8,0,0,0,18.16.528Z" transform="translate(0 0)" fill="#8cb92f"/></g><g transform="translate(38)"><path d="M172.11,1.672h-3.321V0h-1.3V1.672h-3.321V3.523h7.939Z" transform="translate(-159.291)" fill="#8cb92f"/><path d="M66.044,127.51V111.494H54.23V127.51H51.288v1.3h17.7v-1.3Zm-6.634-14.39h1.453v1.3H59.411Zm0,2.923h1.453v1.3H59.411Zm0,2.923h1.453v1.3H59.411Zm-3.649-5.846h1.453v1.3H55.762Zm0,2.923h1.453v1.3H55.762Zm0,2.923h1.453v1.3H55.762Zm8.672,8.544h-1.3V123.34H60.786v4.171h-1.3V123.34H57.137v4.171h-1.3v-5.468h8.594Zm.078-7.247H63.059v-1.3h1.453Zm0-2.923H63.059v-1.3h1.453Zm0-2.923H63.059v-1.3h1.453Z" transform="translate(-51.288 -106.674)" fill="#8cb92f"/></g></svg>