<svg xmlns="http://www.w3.org/2000/svg" width="27" height="26" viewBox="0 0 27 26"><g transform="translate(-59)"><rect width="27" height="26" rx="2" transform="translate(59)" fill="#f5f5f5"/><g transform="translate(65.064 6.315)"><path d="M12.466,25.052a1.643,1.643,0,0,0,1.194-.519,1.643,1.643,0,0,0,1.194.519,1.608,1.608,0,0,0,.213-.016.248.248,0,0,0,.054-.009,1.648,1.648,0,0,0,.927-.495,1.632,1.632,0,0,0,2.388,0,1.643,1.643,0,0,0,1.194.519,1.608,1.608,0,0,0,.2-.014.249.249,0,0,0,.05-.008,1.648,1.648,0,0,0,.941-.5,1.632,1.632,0,0,0,2.388,0,1.636,1.636,0,0,0,2.831-1.118.25.25,0,1,0-.5,0,1.136,1.136,0,0,1-2.115.576.25.25,0,0,0-.431,0,1.131,1.131,0,0,1-1.925.046v-7a.594.594,0,0,1,.593-.593h.66a.751.751,0,1,0,0-1.5h-.66a2.1,2.1,0,0,0-2.1,2.1v1.279H16.307V17.034a.594.594,0,0,1,.593-.593h.66a.751.751,0,1,0,0-1.5H16.9a2.1,2.1,0,0,0-2.1,2.1v7.515a1.141,1.141,0,0,1-.93-.558.25.25,0,0,0-.431,0,1.136,1.136,0,0,1-2.115-.576.25.25,0,0,0-.5,0,1.639,1.639,0,0,0,1.638,1.638Zm7.1-4.092H16.307v-.215h3.261Zm-3.261.5h3.261v.717H16.307Zm0,1.218h3.261v.215H16.307Zm3.261-2.434H16.307v-.717h3.261Zm-.917,3.746a.25.25,0,0,0-.431,0,1.131,1.131,0,0,1-1.913.065v-.661h3.261v1.153a1.141,1.141,0,0,1-.917-.556Zm1.418-6.957a1.6,1.6,0,0,1,1.595-1.595h.66a.25.25,0,1,1,0,.5h-.66a1.1,1.1,0,0,0-1.094,1.094v7.013a1.144,1.144,0,0,1-.5.415Zm-.5,1.78v.215H16.307v-.215ZM16.9,15.439h.66a.25.25,0,0,1,0,.5H16.9a1.1,1.1,0,0,0-1.094,1.094v6.995a1.143,1.143,0,0,1-.5.427V17.034A1.6,1.6,0,0,1,16.9,15.439Z" transform="translate(-10.828 -14.938)" fill="#005d95"/><path d="M25.791,86.522a.25.25,0,0,0-.25.25,1.136,1.136,0,0,1-2.115.576.25.25,0,0,0-.431,0,1.134,1.134,0,0,1-1.957,0,.25.25,0,0,0-.431,0,1.134,1.134,0,0,1-1.957,0,.25.25,0,0,0-.431,0,1.134,1.134,0,0,1-1.957,0,.25.25,0,0,0-.431,0,1.134,1.134,0,0,1-1.957,0,.25.25,0,0,0-.431,0,1.136,1.136,0,0,1-2.115-.576.25.25,0,0,0-.5,0,1.636,1.636,0,0,0,2.831,1.118,1.632,1.632,0,0,0,2.388,0,1.632,1.632,0,0,0,2.388,0,1.632,1.632,0,0,0,2.388,0,1.632,1.632,0,0,0,2.388,0,1.636,1.636,0,0,0,2.831-1.118A.25.25,0,0,0,25.791,86.522Z" transform="translate(-10.827 -76.28)" fill="#005d95"/><path d="M25.791,99.868a.25.25,0,0,0-.25.25,1.136,1.136,0,0,1-2.115.576.25.25,0,0,0-.431,0,1.134,1.134,0,0,1-1.957,0,.25.25,0,0,0-.431,0,1.134,1.134,0,0,1-1.957,0,.25.25,0,0,0-.431,0,1.134,1.134,0,0,1-1.957,0,.25.25,0,0,0-.431,0,1.134,1.134,0,0,1-1.957,0,.25.25,0,0,0-.431,0,1.136,1.136,0,0,1-2.115-.576.25.25,0,1,0-.5,0,1.636,1.636,0,0,0,2.831,1.118,1.632,1.632,0,0,0,2.388,0,1.632,1.632,0,0,0,2.388,0,1.632,1.632,0,0,0,2.388,0,1.632,1.632,0,0,0,2.388,0,1.636,1.636,0,0,0,2.831-1.118A.25.25,0,0,0,25.791,99.868Z" transform="translate(-10.827 -87.717)" fill="#005d95"/></g></g></svg>