<svg xmlns="http://www.w3.org/2000/svg" width="80.541" height="14.348" viewBox="0 0 80.541 14.348"><path d="M14.933,5.914a.794.794,0,0,0-.685-.547L9.927,4.975l-1.709-4a.8.8,0,0,0-1.464,0l-1.709,4L.724,5.367A.8.8,0,0,0,.272,6.76L3.538,9.624l-.963,4.243a.795.795,0,0,0,1.183.86L7.486,12.5l3.726,2.228a.8.8,0,0,0,1.184-.86l-.963-4.243L14.7,6.76A.8.8,0,0,0,14.933,5.914Zm0,0" transform="translate(0 -0.492)" fill="#fd9e00"/><path d="M14.933,5.914a.794.794,0,0,0-.685-.547L9.927,4.975l-1.709-4a.8.8,0,0,0-1.464,0l-1.709,4L.724,5.367A.8.8,0,0,0,.272,6.76L3.538,9.624l-.963,4.243a.795.795,0,0,0,1.183.86L7.486,12.5l3.726,2.228a.8.8,0,0,0,1.184-.86l-.963-4.243L14.7,6.76A.8.8,0,0,0,14.933,5.914Zm0,0" transform="translate(32.53 -0.492)" fill="#fd9e00"/><path d="M14.933,5.914a.794.794,0,0,0-.685-.547L9.927,4.975l-1.709-4a.8.8,0,0,0-1.464,0l-1.709,4L.724,5.367A.8.8,0,0,0,.272,6.76L3.538,9.624l-.963,4.243a.795.795,0,0,0,1.183.86L7.486,12.5l3.726,2.228a.8.8,0,0,0,1.184-.86l-.963-4.243L14.7,6.76A.8.8,0,0,0,14.933,5.914Zm0,0" transform="translate(49.303 -0.492)" fill="#fd9e00" opacity="0.32"/><path d="M14.933,5.914a.794.794,0,0,0-.685-.547L9.927,4.975l-1.709-4a.8.8,0,0,0-1.464,0l-1.709,4L.724,5.367A.8.8,0,0,0,.272,6.76L3.538,9.624l-.963,4.243a.795.795,0,0,0,1.183.86L7.486,12.5l3.726,2.228a.8.8,0,0,0,1.184-.86l-.963-4.243L14.7,6.76A.8.8,0,0,0,14.933,5.914Zm0,0" transform="translate(65.568 -0.492)" fill="#fd9e00" opacity="0.35"/><path d="M14.933,5.914a.794.794,0,0,0-.685-.547L9.927,4.975l-1.709-4a.8.8,0,0,0-1.464,0l-1.709,4L.724,5.367A.8.8,0,0,0,.272,6.76L3.538,9.624l-.963,4.243a.795.795,0,0,0,1.183.86L7.486,12.5l3.726,2.228a.8.8,0,0,0,1.184-.86l-.963-4.243L14.7,6.76A.8.8,0,0,0,14.933,5.914Zm0,0" transform="translate(16.265 -0.492)" fill="#fd9e00"/></svg>