<svg width="32" height="32" viewBox="0 0 32 32" fill="none" xmlns="http://www.w3.org/2000/svg">
<path d="M28 2C28.5046 1.99984 28.9906 2.19041 29.3605 2.5335C29.7305 2.87659 29.9572 3.34684 29.995 3.85L30 4V28C30.0002 28.5046 29.8096 28.9906 29.4665 29.3605C29.1234 29.7305 28.6532 29.9572 28.15 29.995L28 30H4C3.49542 30.0002 3.00943 29.8096 2.63945 29.4665C2.26947 29.1234 2.04284 28.6532 2.005 28.15L2 28V4C1.99984 3.49542 2.19041 3.00943 2.5335 2.63945C2.87659 2.26947 3.34684 2.04284 3.85 2.005L4 2H28ZM15 13H9V21H4V28H28V21H25V25H15V13ZM12 23C12.2652 23 12.5196 23.1054 12.7071 23.2929C12.8946 23.4804 13 23.7348 13 24C13 24.2652 12.8946 24.5196 12.7071 24.7071C12.5196 24.8946 12.2652 25 12 25C11.7348 25 11.4804 24.8946 11.2929 24.7071C11.1054 24.5196 11 24.2652 11 24C11 23.7348 11.1054 23.4804 11.2929 23.2929C11.4804 23.1054 11.7348 23 12 23ZM28 4H4V19H7V13C6.99984 12.4954 7.19041 12.0094 7.5335 11.6395C7.87659 11.2695 8.34685 11.0428 8.85 11.005L9 11H15C15.5046 10.9998 15.9906 11.1904 16.3605 11.5335C16.7305 11.8766 16.9572 12.3468 16.995 12.85L17 13V23H23V21C22.9998 20.4954 23.1904 20.0094 23.5335 19.6395C23.8766 19.2695 24.3468 19.0428 24.85 19.005L25 19H28V4ZM12 19C12.2652 19 12.5196 19.1054 12.7071 19.2929C12.8946 19.4804 13 19.7348 13 20C13 20.2652 12.8946 20.5196 12.7071 20.7071C12.5196 20.8946 12.2652 21 12 21C11.7348 21 11.4804 20.8946 11.2929 20.7071C11.1054 20.5196 11 20.2652 11 20C11 19.7348 11.1054 19.4804 11.2929 19.2929C11.4804 19.1054 11.7348 19 12 19ZM12 15C12.2652 15 12.5196 15.1054 12.7071 15.2929C12.8946 15.4804 13 15.7348 13 16C13 16.2652 12.8946 16.5196 12.7071 16.7071C12.5196 16.8946 12.2652 17 12 17C11.7348 17 11.4804 16.8946 11.2929 16.7071C11.1054 16.5196 11 16.2652 11 16C11 15.7348 11.1054 15.4804 11.2929 15.2929C11.4804 15.1054 11.7348 15 12 15ZM22 7C22.7956 7 23.5587 7.31607 24.1213 7.87868C24.6839 8.44129 25 9.20435 25 10C25 10.7956 24.6839 11.5587 24.1213 12.1213C23.5587 12.6839 22.7956 13 22 13C21.2044 13 20.4413 12.6839 19.8787 12.1213C19.3161 11.5587 19 10.7956 19 10C19 9.20435 19.3161 8.44129 19.8787 7.87868C20.4413 7.31607 21.2044 7 22 7ZM22 9C21.7348 9 21.4804 9.10536 21.2929 9.29289C21.1054 9.48043 21 9.73478 21 10C21 10.2652 21.1054 10.5196 21.2929 10.7071C21.4804 10.8946 21.7348 11 22 11C22.2652 11 22.5196 10.8946 22.7071 10.7071C22.8946 10.5196 23 10.2652 23 10C23 9.73478 22.8946 9.48043 22.7071 9.29289C22.5196 9.10536 22.2652 9 22 9Z" fill="#666666"/>
</svg>
