<?xml version="1.0" encoding="utf-8"?>
<!-- Generator: Adobe Illustrator 22.0.1, SVG Export Plug-In . SVG Version: 6.00 Build 0)  -->
<svg version="1.1" id="Layer_1" xmlns="http://www.w3.org/2000/svg" xmlns:xlink="http://www.w3.org/1999/xlink" x="0px" y="0px"
	 viewBox="0 0 512 512" style="enable-background:new 0 0 512 512;" xml:space="preserve">
<style type="text/css">
	.st0{fill:#329223;}
	.st1{font-family:'Poppins-SemiBold';}
	.st2{font-size:285.4858px;}
</style>
<g>
	<g>
		<path class="st0" d="M498.9,295c-5.5-1.1-10.9,2.5-12,8C464.8,412.3,367.7,491.6,256,491.6C126.1,491.6,20.4,385.9,20.4,256
			S126.1,20.4,256,20.4c61.3,0,120,24,163.8,66.3h-26.4c-5.6,0-10.2,4.6-10.2,10.2c0,5.6,4.6,10.2,10.2,10.2h51.2
			c5.6,0,10.2-4.6,10.2-10.2V45.7c0-5.6-4.6-10.2-10.2-10.2s-10.2,4.6-10.2,10.2v26.8C386.9,26.2,322.8,0,256,0
			C187.6,0,123.3,26.6,75,75C26.6,123.3,0,187.6,0,256s26.6,132.7,75,181c48.4,48.4,112.6,75,181,75c59.4,0,117.4-20.8,163.1-58.7
			C464.2,416,495.4,364,506.9,307C508,301.5,504.5,296.1,498.9,295z"/>
	</g>
</g>
<g>
	<g>
		<path class="st0" d="M501.8,245.8c-5.6,0-10.2,4.6-10.2,10.2c0,2.3,0,4.6-0.1,6.8c-0.2,5.6,4.3,10.3,9.9,10.5c0.1,0,0.2,0,0.3,0
			c5.5,0,10-4.4,10.2-9.9c0.1-2.5,0.1-5,0.1-7.4C512,250.4,507.4,245.8,501.8,245.8z"/>
	</g>
</g>
<text transform="matrix(1 0 0 1 176 350.3266)" class="st0 st1 st2">$</text>
</svg>
