<?xml version="1.0"?>
<svg xmlns="http://www.w3.org/2000/svg" xmlns:xlink="http://www.w3.org/1999/xlink" version="1.1" id="Capa_1" x="0px" y="0px" viewBox="0 0 512 512" style="enable-background:new 0 0 512 512;" xml:space="preserve" width="512px" height="512px"><g><g>
	<g>
		<path d="M486.4,238.933H218.871c1.865-3.895,2.996-8.202,2.996-12.8c0-16.467-13.4-29.867-29.867-29.867h-76.8    c-16.467,0-29.867,13.4-29.867,29.867c0,4.598,1.131,8.905,2.996,12.8h-2.996c-3.007,0-5.851,0.616-8.533,1.572V76.8    c0-14.117-11.483-25.6-25.6-25.6H25.6C11.483,51.2,0,62.683,0,76.8v256V384c0,4.713,3.821,8.533,8.533,8.533h34.133v59.733    c0,4.713,3.821,8.533,8.533,8.533h34.133c4.713,0,8.533-3.821,8.533-8.533v-59.733h324.267v59.733    c0,4.713,3.821,8.533,8.533,8.533H460.8c4.713,0,8.533-3.821,8.533-8.533v-59.733h34.133c4.713,0,8.533-3.821,8.533-8.533v-51.2    v-68.267C512,250.417,500.517,238.933,486.4,238.933z M115.2,213.333H192c7.058,0,12.8,5.742,12.8,12.8s-5.742,12.8-12.8,12.8    h-76.8c-7.058,0-12.8-5.742-12.8-12.8S108.142,213.333,115.2,213.333z M17.067,76.8c0-4.704,3.829-8.533,8.533-8.533h25.6    c4.704,0,8.533,3.829,8.533,8.533v187.733v59.733H17.067V76.8z M76.8,443.733H59.733v-51.2H76.8V443.733z M452.267,443.733H435.2    v-51.2h17.067V443.733z M494.933,375.467H460.8h-34.133H85.333H51.2H17.067v-34.133h51.2h426.667V375.467z M494.933,324.267H76.8    v-59.733c0-4.704,3.829-8.533,8.533-8.533H115.2H192h294.4c4.704,0,8.533,3.829,8.533,8.533V324.267z" data-original="#000000" class="active-path" data-old_color="#000000" fill="#329223"/>
	</g>
</g></g> </svg>
