<svg width="44" height="33" viewBox="0 0 44 33" fill="none" xmlns="http://www.w3.org/2000/svg">
<path d="M21.2301 10.7478C23.0502 10.7478 24.5335 9.41427 24.5335 7.77792C24.5335 6.14157 23.0502 4.81445 21.2301 4.81445C19.41 4.81445 17.9268 6.14801 17.9268 7.78436C17.9268 9.42071 19.41 10.7478 21.2301 10.7478ZM21.2301 5.7808C22.4554 5.7808 23.4586 6.67628 23.4586 7.78436C23.4586 8.89244 22.4626 9.78792 21.2301 9.78792C20.0048 9.78792 19.0016 8.89244 19.0016 7.78436C19.0016 6.67628 20.0048 5.7808 21.2301 5.7808Z" fill="black"/>
<path d="M21.2308 11.6167C17.6766 11.6167 14.7817 13.6606 14.7817 16.1698V16.6909C14.7817 16.8983 15.0254 17.0703 15.3192 17.0703C15.6129 17.0703 15.8566 16.8983 15.8566 16.6909V16.1698C15.8566 14.0754 18.2714 12.3756 21.2308 12.3756C24.1974 12.3756 26.605 14.0805 26.605 16.1698V19.6859C26.605 19.9843 26.2252 20.2221 25.8096 20.1918C25.4442 20.1665 25.1647 19.9489 25.1647 19.6859V16.0737C25.1647 15.8663 24.9211 15.6943 24.6273 15.6943C24.3335 15.6943 24.0899 15.8663 24.0899 16.0737V19.6859C24.0899 20.2171 24.5556 20.6774 25.222 20.8646V30.7904C25.222 31.1395 24.8208 31.4178 24.3335 31.4178C23.8462 31.4178 23.445 31.1345 23.445 30.7904V22.1395C23.445 21.9321 23.2013 21.7601 22.9075 21.7601H19.5612C19.2674 21.7601 19.0238 21.9321 19.0238 22.1395V30.7904C19.0238 31.1395 18.6225 31.4178 18.1352 31.4178C17.648 31.4178 17.2467 31.1345 17.2467 30.7904V20.8646C17.9059 20.6774 18.3789 20.2221 18.3789 19.6859V16.0737C18.3789 15.8663 18.1352 15.6943 17.8415 15.6943C17.5477 15.6943 17.304 15.8663 17.304 16.0737V19.6859C17.304 19.9489 17.0174 20.1665 16.6591 20.1918C16.6376 20.1918 16.609 20.1968 16.5875 20.1968C16.1934 20.1968 15.8637 19.9692 15.8637 19.6859V18.4565C15.8637 18.2491 15.6201 18.0771 15.3263 18.0771C15.0325 18.0771 14.7889 18.2491 14.7889 18.4565V19.6859C14.7889 19.9843 14.9251 20.2525 15.1902 20.4852C15.441 20.6977 15.7778 20.8545 16.1575 20.9203C16.1647 20.9203 16.1647 20.9203 16.1719 20.9203V30.7854C16.1719 31.5493 17.0532 32.1716 18.1352 32.1716C19.2173 32.1716 20.0986 31.5493 20.0986 30.7854V22.5189H22.3701V30.7904C22.3701 31.5544 23.2515 32.1766 24.3335 32.1766C25.4155 32.1766 26.2969 31.5544 26.2969 30.7904V20.9253C26.304 20.9253 26.304 20.9253 26.3112 20.9203C26.3542 20.9152 26.39 20.9051 26.433 20.895C26.5907 20.8596 26.734 20.809 26.8701 20.7483C27.1711 20.6066 27.4075 20.4042 27.5437 20.1715C27.6297 20.0248 27.6798 19.8629 27.6798 19.6909V16.1749C27.6798 13.6605 24.7921 11.6167 21.2308 11.6167Z" fill="black"/>
<path d="M6.94901 10.8445C8.76908 10.8445 10.2524 9.51095 10.2524 7.8746C10.2524 6.23825 8.76908 4.91113 6.94901 4.91113C5.12895 4.91113 3.65283 6.24469 3.65283 7.88104C3.65283 9.51739 5.12895 10.8445 6.94901 10.8445ZM6.94901 5.87748C8.17433 5.87748 9.17752 6.77296 9.17752 7.88104C9.17752 8.98912 8.17433 9.87816 6.94901 9.87816C5.72369 9.87816 4.72051 8.98268 4.72051 7.88104C4.72051 6.7794 5.72369 5.87748 6.94901 5.87748Z" fill="black"/>
<path d="M6.94905 11.7134C3.39491 11.7134 0.5 13.7476 0.5 16.2451V16.7637C0.5 16.9702 0.743631 17.1414 1.03742 17.1414C1.33121 17.1414 1.57484 16.9702 1.57484 16.7637V16.2451C1.57484 14.1605 3.98965 12.4687 6.94905 12.4687C9.90845 12.4687 12.3233 14.1655 12.3233 16.2451V19.7446C12.3233 20.0417 11.9435 20.2783 11.5279 20.2481C11.1624 20.223 10.883 20.0064 10.883 19.7446V16.1494C10.883 15.943 10.6393 15.7718 10.3455 15.7718C10.0518 15.7718 9.80813 15.943 9.80813 16.1494V19.7446C9.80813 20.2733 10.2739 20.7315 10.9403 20.9178V30.797C10.9403 31.1444 10.539 31.4213 10.0518 31.4213C9.5645 31.4213 9.16322 31.1394 9.16322 30.797V22.1867C9.16322 21.9803 8.91959 21.8091 8.6258 21.8091H5.27946C4.98567 21.8091 4.74204 21.9803 4.74204 22.1867V30.797C4.74204 31.1444 4.34077 31.4213 3.85351 31.4213C3.36624 31.4213 2.96497 31.1394 2.96497 30.797V20.9178C3.62421 20.7315 4.09714 20.2783 4.09714 19.7446V16.1494C4.09714 15.943 3.85351 15.7718 3.55972 15.7718C3.26593 15.7718 3.02229 15.943 3.02229 16.1494V19.7446C3.02229 20.0064 2.73567 20.223 2.37739 20.2481C2.35589 20.2481 2.32723 20.2532 2.30573 20.2532C1.91163 20.2532 1.58201 20.0266 1.58201 19.7446V18.521C1.58201 18.3146 1.33838 18.1434 1.04459 18.1434C0.750796 18.1434 0.5 18.3146 0.5 18.521V19.7446C0.5 20.0417 0.636147 20.3086 0.901274 20.5402C1.15207 20.7517 1.48885 20.9077 1.86863 20.9732C1.8758 20.9732 1.8758 20.9732 1.88296 20.9732V30.7919C1.88296 31.5523 2.76433 32.1716 3.84634 32.1716C4.92835 32.1716 5.80972 31.5523 5.80972 30.7919V22.5643H8.08121V30.797C8.08121 31.5573 8.96258 32.1766 10.0446 32.1766C11.1266 32.1766 12.008 31.5573 12.008 30.797V20.9732C12.0151 20.9732 12.0151 20.9732 12.0223 20.9682C12.0653 20.9631 12.1011 20.9531 12.1441 20.943C12.3018 20.9077 12.4451 20.8574 12.5812 20.797C12.8822 20.656 13.1186 20.4546 13.2548 20.223C13.3408 20.0769 13.3909 19.9158 13.3909 19.7446V16.2451C13.3981 13.7476 10.5032 11.7134 6.94905 11.7134Z" fill="black"/>
<rect x="31.3637" y="4.85" width="8.72112" height="8.72112" stroke="#555555" stroke-width="0.7"/>
<rect x="33.4477" y="2.20205" width="8.72112" height="8.72112" fill="white" stroke="#555555" stroke-width="0.7"/>
<g clip-path="url(#clip0)">
<path d="M36.7534 4.12287C36.6132 4.11143 36.49 4.21591 36.4786 4.35619C36.4672 4.49656 36.5718 4.61951 36.7121 4.63105L39.3989 4.84462L35.4367 8.04624C35.3272 8.13469 35.3102 8.29531 35.3986 8.40476C35.4871 8.51422 35.6477 8.53128 35.7572 8.44283L39.713 5.24634L39.3641 7.91312C39.3458 8.05276 39.4442 8.18076 39.5838 8.19903C39.6558 8.2084 39.7247 8.1868 39.777 8.1445C39.8262 8.10476 39.8607 8.04688 39.8695 7.97929L40.2681 4.93355C40.2825 4.79813 40.2433 4.66525 40.1577 4.55927C40.0721 4.45328 39.9504 4.38706 39.8087 4.37221L36.7534 4.12287Z" fill="#555555"/>
</g>
<defs>
<clipPath id="clip0">
<rect width="8.15805" height="8.15805" fill="white" transform="translate(32.042 5.87305) rotate(-38.9395)"/>
</clipPath>
</defs>
</svg>
