<svg xmlns="http://www.w3.org/2000/svg" width="82" height="82" viewBox="0 0 82 82"><g transform="translate(-443 -649)"><circle cx="41" cy="41" r="41" transform="translate(443 649)" fill="#f5f5f5"/><path d="M16.875,7.781a7.545,7.545,0,0,0-3,.563l-3-2.906a12.356,12.356,0,0,1,3-1.125V0h6V4.406a8.272,8.272,0,0,1,4.641,2.813A8.427,8.427,0,0,1,26.344,12h-4.5q-.188-4.219-4.969-4.219ZM2.531,2.156l29.25,29.25L29.25,33.937l-4.5-4.5a9.323,9.323,0,0,1-4.875,2.25V36h-6V31.687a10.413,10.413,0,0,1-5.156-2.625A7,7,0,0,1,6.563,24h4.313q.469,4.219,6,4.219,3.563,0,4.875-1.875L14.72,19.405Q6.845,17.061,6.845,11.53L0,4.688Z" transform="translate(468.109 669.75)" fill="#ff1179"/></g></svg>