<svg xmlns="http://www.w3.org/2000/svg" width="82" height="82" viewBox="0 0 82 82"><g transform="translate(-777 -649)"><circle cx="41" cy="41" r="41" transform="translate(777 649)" fill="#f5f5f5"/><g transform="translate(799.437 672.003)"><path d="M8.831,3.926a1.431,1.431,0,0,0-2.14-.133L4.508,5.976a3.606,3.606,0,0,0-.947,3.73,37.057,37.057,0,0,0,8.792,13.942,37.057,37.057,0,0,0,13.941,8.791,3.609,3.609,0,0,0,3.73-.947l2.183-2.183a1.431,1.431,0,0,0-.135-2.14l-4.864-3.784a1.431,1.431,0,0,0-1.224-.259L21.367,24.28a3.681,3.681,0,0,1-3.5-.968L12.69,18.13a3.681,3.681,0,0,1-.968-3.5l1.154-4.617a1.431,1.431,0,0,0-.259-1.224ZM5.1,2.2a3.681,3.681,0,0,1,5.508.344l3.782,4.864a3.671,3.671,0,0,1,.666,3.15L13.9,15.182a1.431,1.431,0,0,0,.376,1.359l5.184,5.18a1.431,1.431,0,0,0,1.359.376l4.617-1.154a3.681,3.681,0,0,1,3.152.666l4.864,3.782A3.68,3.68,0,0,1,33.8,30.9l-2.183,2.183a5.863,5.863,0,0,1-6.068,1.481,39.31,39.31,0,0,1-14.785-9.324A39.307,39.307,0,0,1,1.438,10.454,5.865,5.865,0,0,1,2.919,4.383L5.1,2.2ZM35.671.328a1.125,1.125,0,0,1,0,1.593l-9.33,9.329h6.284a1.125,1.125,0,0,1,0,2.25h-9A1.125,1.125,0,0,1,22.5,12.375v-9a1.125,1.125,0,0,1,2.25,0V9.659L34.079.328a1.125,1.125,0,0,1,1.593,0Z" fill="#ff1179" fill-rule="evenodd"/></g></g></svg>