<svg xmlns="http://www.w3.org/2000/svg" width="54" height="54" viewBox="0 0 54 54"><g transform="translate(-502 -3719)"><circle cx="27" cy="27" r="27" transform="translate(502 3719)" fill="#fff"/><path d="M15.3,3A12.319,12.319,0,0,0,3,15.3v5.1a2.38,2.38,0,0,0,2.461,2.285h1.23a1.23,1.23,0,0,0,1.23-1.23V15.129a1.23,1.23,0,0,0-1.23-1.23H5.574a9.83,9.83,0,0,1,19.461,0H23.918a1.23,1.23,0,0,0-1.23,1.23v7.558a2.463,2.463,0,0,1-2.461,2.461H17.766v-1.23H12.844v3.691h7.383a4.927,4.927,0,0,0,4.922-4.922A2.38,2.38,0,0,0,27.609,20.4V15.3A12.319,12.319,0,0,0,15.3,3Z" transform="translate(513.896 3730.692)" fill="#ff1179"/></g></svg>