<svg xmlns="http://www.w3.org/2000/svg" width="82" height="82" viewBox="0 0 82 82"><g transform="translate(-151 -649)"><circle cx="41" cy="41" r="41" transform="translate(151 649)" fill="#f5f5f5"/><path d="M18,1.125A16.875,16.875,0,1,0,34.875,18,16.875,16.875,0,0,0,18,1.125ZM12.308,31.477A14.643,14.643,0,0,1,4.523,12.308q.108-.253.225-.5l3.69,3.32v4.446l5.421,5.741h2.735v3.449L13.286,31.85q-.494-.168-.977-.372Zm16.033-3.135A14.572,14.572,0,0,1,18,32.625a14.8,14.8,0,0,1-2.093-.148l2.937-2.738V23.063H14.829l-4.141-4.385V14.124L5.886,9.8A14.622,14.622,0,0,1,26.107,5.825L22.9,9.944l1.089,2.723-.737.737L17.727,12.3l-3.1,2.327v6.188H27l3.54,4.72a14.634,14.634,0,0,1-2.2,2.809ZM32.625,18a14.538,14.538,0,0,1-.975,5.262l-3.525-4.7H16.875V15.75l1.4-1.048L24,15.846l2.638-2.638-1.161-2.9,2.405-3.092q.236.217.465.444A14.572,14.572,0,0,1,32.625,18Z" transform="translate(174.5 670.875)" fill="#ff1179"/></g></svg>