<svg xmlns="http://www.w3.org/2000/svg" width="54" height="54" viewBox="0 0 54 54"><g transform="translate(-296 -3719)"><circle cx="27" cy="27" r="27" transform="translate(296 3719)" fill="#fff"/><path d="M16.844,6.98l2.888,5.839.482,1.046,1.046.157,6.446.931-4.584,4.5-.785.764.188,1.046,1.1,6.415-5.766-3.024-1.014-.428-.973.513L10.1,27.721l1.046-6.415.188-1.046-.775-.806L5.939,14.9l6.446-.931,1.046-.157.482-1.046L16.844,6.98m0-4.73L12.083,11.9,1.44,13.438l7.7,7.514-1.82,10.6,9.523-5,9.524,5-1.821-10.6,7.7-7.5L21.606,11.9Z" transform="translate(306.56 3728.75)" fill="#ff1179"/></g></svg>