<svg xmlns="http://www.w3.org/2000/svg" width="82" height="82" viewBox="0 0 82 82"><g transform="translate(-1087 -649)"><circle cx="41" cy="41" r="41" transform="translate(1087 649)" fill="#f5f5f5"/><g transform="translate(1111.25 672.153)"><path d="M10.125,4.5A1.125,1.125,0,0,0,9,5.625v24.9l9-6,9,6v-11.4a1.125,1.125,0,0,1,2.25,0v15.6L18,27.227l-11.25,7.5V5.625A3.375,3.375,0,0,1,10.125,2.25h9a1.125,1.125,0,0,1,0,2.25Z" fill="#ff1179" fill-rule="evenodd"/><path d="M35.671,4.829a1.125,1.125,0,0,1,0,1.593l-6.75,6.75a1.125,1.125,0,0,1-1.593,0L23.953,9.8A1.126,1.126,0,1,1,25.546,8.2l2.579,2.58,5.954-5.956a1.125,1.125,0,0,1,1.593,0Z" fill="#ff1179" fill-rule="evenodd"/></g></g></svg>