<svg xmlns="http://www.w3.org/2000/svg" width="18.749" height="23.862" viewBox="0 0 18.749 23.862"><g transform="translate(-5.625 -2.25)"><path d="M16.636,17.522A4.261,4.261,0,1,1,20.9,13.261,4.261,4.261,0,0,1,16.636,17.522Zm0-6.818a2.557,2.557,0,1,0,2.557,2.557A2.557,2.557,0,0,0,16.636,10.7Z" transform="translate(-1.637 -1.637)" fill="#666"/><path d="M15,26.112,7.81,17.633q-.15-.191-.3-.384a9.28,9.28,0,0,1-1.888-5.625,9.374,9.374,0,1,1,18.749,0,9.276,9.276,0,0,1-1.888,5.622v0s-.255.336-.294.381Zm-6.126-9.89s.2.262.245.319L15,23.477l5.889-6.946c.037-.047.237-.311.238-.312a7.586,7.586,0,0,0,1.543-4.6,7.67,7.67,0,1,0-15.34,0,7.589,7.589,0,0,0,1.545,4.6Z" transform="translate(0)" fill="#666"/></g></svg>