<svg xmlns="http://www.w3.org/2000/svg" width="16.034" height="22.448" viewBox="0 0 16.034 22.448"><g transform="translate(-6.75 -2.25)"><path d="M15.737,3.853a4.009,4.009,0,1,1-4.009,4.009,4.009,4.009,0,0,1,4.009-4.009m0-1.6a5.612,5.612,0,1,0,5.612,5.612A5.612,5.612,0,0,0,15.737,2.25Z" transform="translate(-0.97 0)" fill="#666"/><path d="M22.784,29.87h-1.6V25.862a4.009,4.009,0,0,0-4.009-4.009h-4.81a4.009,4.009,0,0,0-4.009,4.009V29.87H6.75V25.862a5.612,5.612,0,0,1,5.612-5.612h4.81a5.612,5.612,0,0,1,5.612,5.612Z" transform="translate(0 -5.173)" fill="#666"/></g></svg>