<svg viewBox="0 0 24 24" xmlns="http://www.w3.org/2000/svg" aria-labelledby="icon-Bu54u6rGwx0vTPnrE250t" class="breadcrumb-item__icon fill-current stroke-current stroke-0 duration-150 ease-in-out" width="16" height="16" aria-hidden="true" focusable="false"><path d="M22.987 11.88a1.631 1.631 0 0 0-.078-.377 1.256 1.256 0 0 0-.285-.415l-6.927-6.722c-.243-.234-.572-.366-.915-.366s-.671.132-.914.366a1.256 1.256 0 0 0-.384.894 1.226 1.226 0 0 0 .384.894l4.709 4.581H2.297c-.344 0-.674.133-.917.37a1.24 1.24 0 0 0-.38.89c0 .333.137.653.38.89.243.235.573.368.917.368h16.28l-4.748 4.595a1.256 1.256 0 0 0-.384.893 1.226 1.226 0 0 0 .384.894 1.332 1.332 0 0 0 .921.365 1.332 1.332 0 0 0 .921-.365l6.953-6.747c.056-.073.108-.148.155-.227.044-.06.083-.123.117-.188.067-.152.102-.314.104-.479 0 0-.013-.088-.013-.113z"></path></svg>