<svg width="22" height="20" viewBox="0 0 22 20" fill="none" xmlns="http://www.w3.org/2000/svg"><path d="M2.44534 16.9968V18.6467C2.44917 18.7681 2.42808 18.889 2.38338 19.0019C2.33868 19.1148 2.27132 19.2173 2.18545 19.3032C2.09959 19.3891 1.99703 19.4564 1.88413 19.5011C1.77122 19.5458 1.65035 19.5669 1.52897 19.5631H0.91681C0.795436 19.5669 0.674566 19.5458 0.561658 19.5011C0.44875 19.4564 0.346198 19.3891 0.260331 19.3032C0.174465 19.2173 0.107104 19.1148 0.0624052 19.0019C0.0177063 18.889 -0.00338235 18.7681 0.000440591 18.6467V8.74569L2.59807 0.922747C2.68916 0.651066 2.86459 0.415552 3.09882 0.250492C3.33576 0.0839351 3.61918 -0.00367588 3.90878 0.000118228H18.0912C18.3808 -0.00367588 18.6642 0.0839351 18.9012 0.250492C19.1354 0.415552 19.3108 0.651066 19.4019 0.922747L21.9996 8.74569V18.6467C22.0034 18.7681 21.9823 18.889 21.9376 19.0019C21.8929 19.1148 21.8255 19.2173 21.7397 19.3032C21.6538 19.3891 21.5513 19.4564 21.4383 19.5011C21.3254 19.5458 21.2046 19.5669 21.0832 19.5631H20.441C20.3196 19.5669 20.1987 19.5458 20.0858 19.5011C19.9729 19.4564 19.8704 19.3891 19.7845 19.3032C19.6986 19.2173 19.6313 19.1148 19.5866 19.0019C19.5419 18.889 19.5208 18.7681 19.5246 18.6467V16.9968H2.44534ZM2.53673 6.91295H19.467L17.7858 1.84037H4.21799L2.53673 6.91295ZM5.07302 13.6355C5.29247 13.6406 5.51054 13.5996 5.71322 13.5153C5.91589 13.431 6.09866 13.3052 6.24978 13.146C6.40227 12.9938 6.52271 12.8126 6.60399 12.613C6.68526 12.4135 6.72573 12.1997 6.72298 11.9843C6.73068 11.5353 6.56059 11.1015 6.24978 10.7775C6.1006 10.615 5.91845 10.4863 5.71551 10.3999C5.51256 10.3136 5.29351 10.2716 5.07302 10.2767C4.61996 10.2794 4.18621 10.4605 3.86585 10.7809C3.54548 11.1012 3.36434 11.535 3.36171 11.988C3.35657 12.2085 3.39858 12.4276 3.48494 12.6305C3.5713 12.8335 3.70001 13.0156 3.86246 13.1648C4.18785 13.4756 4.62313 13.6449 5.07302 13.6355V13.6355ZM16.9658 13.6355C17.1895 13.6387 17.4115 13.5971 17.6188 13.513C17.8261 13.429 18.0144 13.3042 18.1726 13.146C18.3324 12.9979 18.4595 12.8181 18.5457 12.618C18.6319 12.418 18.6754 12.2021 18.6733 11.9843C18.671 11.5308 18.4899 11.0965 18.1692 10.7759C17.8485 10.4552 17.4143 10.274 16.9608 10.2717C16.7403 10.2666 16.5212 10.3086 16.3183 10.3949C16.1154 10.4813 15.9332 10.61 15.784 10.7725C15.4732 11.0965 15.3031 11.5303 15.3108 11.9793C15.3057 12.1987 15.3467 12.4168 15.431 12.6195C15.5153 12.8221 15.6411 13.0049 15.8003 13.156C15.9518 13.3095 16.1326 13.431 16.3319 13.5134C16.5313 13.5957 16.7451 13.6372 16.9608 13.6355H16.9658Z" fill="#000000"></path></svg>