<svg width="29" height="30" viewBox="0 0 29 30" fill="none" xmlns="http://www.w3.org/2000/svg"><path d="M28.073 27.7691H27.0009V1.08192C27.0009 0.794968 26.8884 0.519791 26.6883 0.316889C26.4881 0.113986 26.2167 0 25.9336 0H12.7137C12.4306 0 12.1591 0.113986 11.959 0.316889C11.7588 0.519791 11.6464 0.794968 11.6464 1.08192V3.79658H17.2423C17.3825 3.79658 17.5213 3.82455 17.6507 3.87892C17.7802 3.9333 17.8979 4.013 17.997 4.11347C18.0961 4.21393 18.1747 4.3332 18.2284 4.46447C18.282 4.59574 18.3096 4.73644 18.3096 4.87852V27.7691H17.0843V5.97188C17.0843 5.68493 16.9719 5.40973 16.7717 5.20683C16.5716 5.00393 16.3001 4.88994 16.0171 4.88994H2.79712C2.51406 4.88994 2.24259 5.00393 2.04244 5.20683C1.84229 5.40973 1.72987 5.68493 1.72987 5.97188V27.7675H0.925403C0.679973 27.7675 0.444588 27.8663 0.271043 28.0423C0.0974976 28.2182 0 28.4568 0 28.7056V29.0619C0 29.3107 0.0974976 29.5493 0.271043 29.7252C0.444588 29.9012 0.679973 30 0.925403 30H28.0746C28.32 30 28.5554 29.9012 28.729 29.7252C28.9025 29.5493 29 29.3107 29 29.0619V28.7056C28.9991 28.4569 28.9011 28.2188 28.7273 28.0432C28.5536 27.8677 28.3183 27.7691 28.073 27.7691ZM20.5505 2.27336H24.8776V6.65995H20.5505V2.27336ZM20.5505 9.15069H24.8776V13.5373H20.5505V9.15069ZM20.5505 16.0264H24.8776V20.4129H20.5505V16.0264ZM10.6339 7.16332H14.9611V11.5499H10.6339V7.16332ZM10.6339 14.0406H14.9611V18.4272H10.6339V14.0406ZM10.6339 20.918H14.9611V25.3045H10.6339V20.918ZM3.8499 7.16332H8.18024V11.5499H3.8531L3.8499 7.16332ZM3.8499 14.0406H8.18024V18.4272H3.8531L3.8499 14.0406ZM3.8499 20.918H8.18024V25.3045H3.8531L3.8499 20.918Z" fill="#000000"></path></svg>