<svg width="30" height="30" viewBox="0 0 30 30" fill="none" xmlns="http://www.w3.org/2000/svg"><circle cx="15" cy="15" r="15" fill="#C2EDFF"></circle><path d="M13.4 11.8H16.6" stroke="#006B8D" stroke-width="1.5" stroke-linecap="round" stroke-linejoin="round"></path><path d="M23 17.1037L19.3959 9.15756C19.0237 8.80034 18.5214 8.59998 17.9979 8.59998C17.4744 8.59998 16.9721 8.80034 16.6 9.15756V18.2" fill="#006B8D"></path><path d="M23 17.1037L19.3959 9.15756C19.0237 8.80034 18.5214 8.59998 17.9979 8.59998C17.4744 8.59998 16.9721 8.80034 16.6 9.15756V18.2" stroke="#006B8D" stroke-width="1.5" stroke-linecap="round" stroke-linejoin="round"></path><path d="M13.4 18.2V9.15756C13.0279 8.80034 12.5255 8.59998 12.0021 8.59998C11.4786 8.59998 10.9762 8.80034 10.6041 9.15756L7 17.1037" fill="#006B8D"></path><path d="M13.4 18.2V9.15756C13.0279 8.80034 12.5255 8.59998 12.0021 8.59998C11.4786 8.59998 10.9762 8.80034 10.6041 9.15756L7 17.1037" stroke="#006B8D" stroke-width="1.5" stroke-linecap="round" stroke-linejoin="round"></path><path d="M10.2 21.4C11.9673 21.4 13.4 19.9673 13.4 18.2C13.4 16.4327 11.9673 15 10.2 15C8.43269 15 7 16.4327 7 18.2C7 19.9673 8.43269 21.4 10.2 21.4Z" fill="#C2EDFF" stroke="#006B8D" stroke-width="1.5" stroke-linecap="round" stroke-linejoin="round"></path><path d="M19.8 21.4C21.5673 21.4 23 19.9673 23 18.2C23 16.4327 21.5673 15 19.8 15C18.0327 15 16.6 16.4327 16.6 18.2C16.6 19.9673 18.0327 21.4 19.8 21.4Z" fill="#C2EDFF" stroke="#006B8D" stroke-width="1.5" stroke-linecap="round" stroke-linejoin="round"></path></svg>