<svg width="22" height="30" viewBox="0 0 22 30" fill="none" xmlns="http://www.w3.org/2000/svg"><path d="M19.8006 30V18.002H15.5839V6.56747C15.5451 5.69313 15.6811 4.81988 15.9836 4.00111C16.2861 3.18235 16.7487 2.43526 17.3431 1.80553C17.9589 1.19768 18.6896 0.724638 19.4903 0.415332C20.291 0.106026 21.1449 -0.033048 22 0.00661185V30H19.8006ZM4.58371 30V16.2031C3.31886 15.9321 2.17757 15.24 1.33845 14.235C0.450292 13.2077 -0.0271203 11.8761 0.00119076 10.5052V0.00661185H2.20062V10.5052H4.58371V0.00661185H6.78313V10.5052H9.16622V0.00661185H11.3656V10.5052C11.3924 11.8747 10.9145 13.2045 10.0269 14.2303C9.18775 15.2353 8.04646 15.9275 6.78161 16.1984V29.9953L4.58371 30Z" fill="#262626"></path></svg>