<svg width="30" height="30" viewBox="0 0 30 30" fill="none" xmlns="http://www.w3.org/2000/svg"><circle cx="15" cy="15" r="15" fill="#C2EDFF"></circle><path d="M21.3937 11.7714L18.8834 14.1323L21.2742 20.7069L19.4811 22.5L15.9099 17.2702L14.1019 18.9139V20.7069L12.3088 22.5L11.2479 19.3696L8.125 18.3162L9.91807 16.5231H11.7111L13.5042 14.73L8.125 11.1439L9.91807 9.3508L16.4927 11.7416L18.861 9.23873L18.8087 9.27609C19.1456 8.93924 19.6024 8.75 20.0788 8.75C20.5552 8.75 21.0121 8.93924 21.3489 9.27609C21.6858 9.61294 21.875 10.0698 21.875 10.5462C21.875 11.0226 21.6858 11.4794 21.3489 11.8163L21.3937 11.7714Z" stroke="#006B8D" stroke-width="1.875" stroke-linecap="round" stroke-linejoin="round"></path></svg>