<svg width="24" height="25" viewBox="0 0 24 25" fill="none" xmlns="http://www.w3.org/2000/svg"><path d="M6.50833 16.5577C6.307 17.5258 7.00809 18.5467 6.21276 19.5906C5.67159 18.7941 5.15754 18.0363 4.59638 17.2098C4.37649 17.7646 4.15374 18.3465 3.90671 18.9171C3.88244 18.9743 3.74965 19.2774 3.64827 19.6492C3.37554 19.419 3.14993 19.3218 3.12709 19.1902C3.02713 18.6068 2.99144 18.0134 2.92147 17.4242C2.8872 17.1383 3.19848 15.9571 3.19848 15.9571C3.16849 15.9643 2.37316 16.6964 2.3703 16.6936C1.96335 17.051 1.5564 17.4085 1.10519 17.8046C0.912426 16.8122 1.24798 15.9872 1.8277 15.0792C1.13803 15.2508 0.566873 15.3937 0 15.5353C0.499762 13.7779 1.7763 12.9128 3.80676 13.0158C3.88815 11.8647 3.93241 10.6493 5.07044 9.9586C5.48882 9.70407 6.00143 9.6054 6.61828 9.38233C6.26559 10.3232 5.99572 11.0439 5.81866 11.5172C6.59829 11.2798 7.06378 11.1497 8.0476 10.8151C8.22466 10.7551 9.1128 10.8766 9.1128 10.8766C9.1128 10.8766 8.90148 10.3661 8.94717 10.2803C9.57116 9.10636 10.3708 8.08539 11.4731 7.32038C11.456 7.25031 11.4403 7.17881 11.4231 7.10875C11.0133 7.17309 10.6035 7.23744 10.1794 7.30322C10.2009 7.25317 10.2565 7.12448 10.3651 6.87138C9.95097 7.15022 9.62827 7.36757 9.23703 7.63067C9.28986 7.41904 9.32413 7.27891 9.39267 7.00436C9.00286 7.30894 8.72013 7.53201 8.36744 7.80798C8.41314 7.57776 8.4417 7.43906 8.48882 7.20741C8.09329 7.52486 7.78201 7.77509 7.32937 8.1383C7.44788 7.8566 7.505 7.72362 7.64208 7.39759C7.20371 7.75794 6.90386 8.00245 6.60543 8.24697C6.78391 7.45193 7.75345 6.09207 8.82151 5.57444C9.87815 5.06252 11.0533 4.79513 12.2841 4.38617C11.5831 4.0387 10.8991 3.69837 10.2023 3.35233C10.1894 3.37092 10.2608 3.2651 10.2922 3.21935C9.69967 3.04919 9.08996 2.87473 8.39315 2.67597C10.138 1.77083 11.8015 1.95386 15.0043 3.39237C14.5502 2.97054 14.1947 2.69027 13.9119 2.34852C13.8134 2.22984 13.8962 1.96244 13.8962 1.6593C13.8962 1.6593 13.7392 1.62069 13.4836 1.55777C13.6406 1.4348 13.722 1.36902 13.7435 1.35329C13.4079 0.93861 13.0723 0.522505 12.6625 0.0163104C14.0847 -0.0680553 15.3655 0.150723 16.1537 1.24462C16.8677 2.23556 17.2932 3.43527 17.8558 4.56348C20.8644 3.42526 23.0662 4.21601 24 6.87138C23.4274 6.80847 22.8477 6.74555 22.2523 6.6812C22.2537 6.70122 22.2651 6.82705 22.2794 6.99435C21.5554 6.65403 20.8501 6.32372 20.1447 5.99197C20.1061 6.0506 20.0662 6.10923 20.0276 6.16786C22.5721 7.03582 23.6159 8.96623 23.8986 11.6659C23.743 11.3499 23.673 11.2098 23.6073 11.0682C23.5474 10.9395 23.4945 10.808 23.4146 10.6221C23.3732 10.798 23.3417 10.9252 23.2932 11.1297C23.179 10.9081 23.0919 10.7379 22.9833 10.5277C22.9077 10.6292 22.8406 10.7193 22.7178 10.8838C22.6635 10.6121 22.6264 10.419 22.5721 10.1431C22.4579 10.276 22.3751 10.3718 22.2565 10.5105C22.2251 10.3146 22.198 10.1502 22.1666 9.95716C22.0723 10.0701 21.9952 10.1631 21.841 10.3475C21.801 9.99148 21.7739 9.74553 21.7325 9.36088C21.564 9.70121 21.4526 9.92428 21.2856 10.2603C21.2242 9.97575 21.1856 9.79844 21.1342 9.55536C20.9914 9.70693 20.9015 9.80559 20.8629 9.84563C20.4688 9.2136 20.0662 8.56727 19.6621 7.91952C19.585 7.95384 19.5064 7.98815 19.4293 8.02247C21.1028 10.0701 21.3041 12.4066 20.8272 14.8718C20.8044 14.623 20.7815 14.3742 20.7473 13.9996C20.6059 14.277 20.5174 14.45 20.4288 14.6216C20.3989 14.6101 20.3689 14.5973 20.3389 14.5858C20.376 14.164 20.4117 13.7436 20.4631 13.1531C20.1975 13.4633 20.0148 13.675 19.7377 13.9981C19.7934 13.6092 19.832 13.3332 19.8748 13.0286C19.7406 13.1001 19.6335 13.1588 19.465 13.2489C19.5121 12.9586 19.5493 12.7284 19.5992 12.4152C19.4136 12.6197 19.2751 12.7727 19.0638 13.0058C19.1837 12.5167 19.2794 12.1349 19.3736 11.7517C19.3422 11.7346 19.3108 11.7174 19.2794 11.6988C19.1737 11.8261 19.0666 11.9533 18.8981 12.155C18.8981 11.7574 18.8981 11.4629 18.8981 11.0496C18.7054 11.297 18.5812 11.46 18.4284 11.6559C18.3798 11.5387 18.3398 11.4414 18.3555 11.48C17.7587 12.7098 17.1176 14.0282 16.4779 15.3451C16.4108 15.3165 16.3422 15.2865 16.2751 15.2579C16.3351 14.9719 16.3965 14.6845 16.4736 14.3142C16.2651 14.4815 16.1237 14.5958 15.8853 14.7875C16.0052 14.4157 16.0895 14.1554 16.2037 13.8051C15.9553 13.9038 15.7753 13.9738 15.4741 14.0925C15.6568 13.7765 15.7796 13.562 15.9024 13.349C15.8367 13.3447 15.7696 13.3404 15.704 13.3361C15.7411 12.8528 15.7796 12.368 15.821 11.8332C15.7425 11.8389 15.5769 11.8504 15.3741 11.8647C15.5426 11.5801 15.6982 11.317 15.8896 10.9967C15.7025 11.0182 15.5583 11.0353 15.3527 11.0596C15.6169 10.3676 15.8724 9.69692 16.128 9.02771C16.0723 8.99625 16.0167 8.96622 15.961 8.93477C15.7539 9.20502 15.5312 9.46384 15.3427 9.74696C13.9419 11.8661 13.308 14.2541 13.0866 16.7365C12.9253 18.5582 12.9895 20.3985 12.9581 22.2317C12.9495 22.7035 13.1395 22.9724 13.6378 23.1354C14.6316 23.46 15.1985 24.0591 15.5597 25C12.9153 25 10.298 25 7.55926 25C7.83484 24.1292 8.406 23.5872 9.17992 23.234C9.48691 23.0939 9.68539 22.9566 9.64398 22.562C9.39981 20.194 8.54879 18.1406 6.64398 16.6178C6.59257 16.5806 6.52404 16.5649 6.50833 16.5577ZM12.554 9.76984C12.5783 9.60397 12.6011 9.44382 12.6411 9.16927C12.4255 9.41236 12.2927 9.5625 12.1299 9.74696C12.1442 9.51675 12.1556 9.3423 12.1742 9.04344C11.92 9.43238 11.7444 9.70264 11.5317 10.0287C11.4988 9.78128 11.4774 9.61398 11.4431 9.35659C11.2189 9.75268 11.0447 10.0587 10.7877 10.5105C10.8248 10.113 10.8477 9.88138 10.8834 9.49816C10.5407 10.1159 10.2751 10.5935 9.95669 11.164C9.92099 10.8409 9.89957 10.6492 9.88529 10.5163C9.41266 10.9853 8.89291 10.9981 8.6773 11.1354C7.87625 11.6688 7.57068 12.155 7.21656 12.5182C8.84436 12.2679 10.1666 12.7384 11.2218 14.0153C10.2251 14.0153 9.29557 14.0153 8.36602 14.0153C9.26416 14.6802 10.0995 15.4152 10.6892 16.4991C9.52261 16.2789 8.65874 15.2236 7.32937 15.7984C9.52404 17.643 10.515 20.041 10.7292 22.8036C11.1761 22.7793 11.5259 22.7593 11.9143 22.7379C11.653 17.6616 11.9143 12.7455 14.8386 8.32991C14.0862 8.80464 13.3337 9.27795 12.554 9.76984Z" fill="black"></path></svg>