<svg xmlns="http://www.w3.org/2000/svg" width="27" height="26" viewBox="0 0 27 26"><rect width="27" height="26" rx="2" fill="#f5f5f5"/><g transform="translate(5.704 9.121)"><g transform="translate(0 0)"><path d="M15.8,17.081a.843.843,0,0,0-.644-.315h-.365v-.294a.994.994,0,0,0-1.024-.959h-.481v-.543a.948.948,0,0,0-.3-.685,1.06,1.06,0,0,0-1.408,0,.949.949,0,0,0-.3.685v2.549H4.764V14.969a.947.947,0,0,0-.3-.685,1.06,1.06,0,0,0-1.408,0,.948.948,0,0,0-.3.685v.543H2.219a1,1,0,0,0-.675.258.885.885,0,0,0-.29.648v.348H.893a.846.846,0,0,0-.647.316A1.1,1.1,0,0,0,0,17.787v1.468a1.1,1.1,0,0,0,.246.705.846.846,0,0,0,.646.316h.361v.348a.885.885,0,0,0,.291.648,1,1,0,0,0,.675.257h.539v.543a.947.947,0,0,0,.3.684,1.034,1.034,0,0,0,1.408,0,.947.947,0,0,0,.3-.684V19.524h6.519v2.549a.947.947,0,0,0,.3.684,1.034,1.034,0,0,0,1.408,0,.948.948,0,0,0,.3-.684V21.53h.481a.994.994,0,0,0,1.024-.959v-.294h.365a.845.845,0,0,0,.644-.315,1.1,1.1,0,0,0,.245-.7V17.783a1.1,1.1,0,0,0-.245-.7ZM.893,19.775a.343.343,0,0,1-.261-.135.606.606,0,0,1-.13-.384V17.787a.606.606,0,0,1,.13-.384.343.343,0,0,1,.261-.135h.361v2.507Zm1.326,1.254a.5.5,0,0,1-.336-.126.377.377,0,0,1-.128-.279V16.418a.377.377,0,0,1,.128-.278.5.5,0,0,1,.336-.126h.539v5.014Zm2.043,1.045a.438.438,0,0,1-.142.32.552.552,0,0,1-.719,0,.438.438,0,0,1-.142-.32v-7.1a.438.438,0,0,1,.142-.32.533.533,0,0,1,.72,0,.439.439,0,0,1,.142.32Zm.5-3.051v-1h6.519v1Zm8.023,3.051a.438.438,0,0,1-.142.32.552.552,0,0,1-.719,0,.438.438,0,0,1-.142-.32v-7.1a.438.438,0,0,1,.142-.32.533.533,0,0,1,.72,0,.438.438,0,0,1,.142.32Zm1.5-1.5a.494.494,0,0,1-.522.458h-.481V16.014h.481a.494.494,0,0,1,.522.458Zm1.254-1.311a.6.6,0,0,1-.129.381.34.34,0,0,1-.259.134h-.365V17.267h.365a.34.34,0,0,1,.259.134.6.6,0,0,1,.129.381Z" transform="translate(0 -14.017)" fill="#005d95"/></g></g></svg>