<svg xmlns="http://www.w3.org/2000/svg" width="18.242" height="17.406" viewBox="0 0 18.242 17.406"><path d="M853.254,303.993c.2-.1.383-.183.567-.273q.717-.352,1.431-.7a.579.579,0,0,1,.878.43c.193.989.382,1.979.574,2.968q.32,1.648.64,3.3c.053.274.107.547.158.821a.6.6,0,0,1-.375.721q-1.617.7-3.238,1.39c-.65.278-1.3.554-1.951.835a.729.729,0,0,1-.561.027q-1.835-.653-3.673-1.3c-.8-.282-1.6-.567-2.4-.843a.368.368,0,0,0-.242.011q-2.449,1.043-4.895,2.095c-.031.013-.063.026-.1.038a.56.56,0,0,1-.583-.078.594.594,0,0,1-.193-.617q.183-.941.365-1.882l.451-2.323q.243-1.263.485-2.527c.026-.135.047-.271.08-.4a.657.657,0,0,1,.368-.44q1.207-.593,2.418-1.178c.111-.053.128-.1.073-.213A5.123,5.123,0,0,1,843,301.6a5.405,5.405,0,0,1,.553-2.411,5.334,5.334,0,0,1,1.792-2.085,5.254,5.254,0,0,1,3.368-.946,5.316,5.316,0,0,1,3.869,1.961,5.332,5.332,0,0,1,.693,5.761.446.446,0,0,0-.023.06A.217.217,0,0,0,853.254,303.993Zm-4.845,4.788c.037-.046.065-.076.09-.11l2.875-3.907a7.84,7.84,0,0,0,.946-1.512,4.215,4.215,0,0,0-.832-4.652,4.209,4.209,0,0,0-2.66-1.3,4.1,4.1,0,0,0-2.319.433,4.237,4.237,0,0,0-2.078,2.273,4.067,4.067,0,0,0-.274,1.969,4.712,4.712,0,0,0,.927,2.287q1.525,2.089,3.062,4.169C848.23,308.547,848.316,308.657,848.409,308.78Zm6.741-4.437c-.047.018-.076.027-.1.039q-1.521.742-3.04,1.486a.3.3,0,0,0-.1.091c-.152.2-.3.411-.452.61a.351.351,0,0,0-.07.286c.04.332.072.665.106,1q.1,1.018.207,2.036.089.877.179,1.754c.02.19.042.38.065.589.07-.025.117-.039.163-.059l2.719-1.167,1.383-.593c.068-.029.115-.052.1-.148-.168-.85-.329-1.7-.493-2.551s-.331-1.718-.5-2.577C855.257,304.88,855.2,304.62,855.15,304.343Zm-14.543,7.695c.079-.03.122-.045.164-.063l1.761-.755,2.176-.93c.065-.028.131-.049.137-.146.015-.222.045-.444.068-.666.1-.994.2-1.989.3-2.983a.318.318,0,0,0-.053-.2c-.3-.415-.6-.825-.9-1.238a.115.115,0,0,0-.171-.047c-.148.078-.3.149-.45.222-.6.294-1.2.587-1.8.884a.265.265,0,0,0-.124.159c-.064.293-.113.589-.171.884q-.435,2.241-.871,4.481C840.65,311.765,840.632,311.886,840.607,312.038Zm10.568.184-.472-4.611c-.06.07-.1.11-.127.152-.552.749-1.1,1.5-1.656,2.248a.584.584,0,0,1-1.017,0q-.95-1.282-1.894-2.568c-.029-.039-.061-.075-.117-.142-.022.226-.039.413-.058.6-.075.734-.147,1.468-.228,2.2a.173.173,0,0,0,.141.22q2.583.9,5.163,1.819c.079.028.161.051.265.084Z" transform="translate(-839.276 -296.149)" fill="#fff"/><path d="M1126.928,427.147a2.4,2.4,0,1,1,2.4,2.387A2.4,2.4,0,0,1,1126.928,427.147Zm2.395-1.664a1.65,1.65,0,1,0,1.643,1.639A1.667,1.667,0,0,0,1129.323,425.483Z" transform="translate(-1120.179 -421.713)" fill="#fff"/></svg>