<svg xmlns="http://www.w3.org/2000/svg" width="27" height="26" viewBox="0 0 27 26"><g transform="translate(-30)"><rect width="27" height="26" rx="2" transform="translate(30)" fill="#f5f5f5"/><g transform="translate(37.672 7.016)"><path d="M64.328,11.49l.757-.048h0a1.781,1.781,0,0,0,1.328-.775l.6-.877a3.541,3.541,0,0,0,.568-2.6.8.8,0,0,0-.75-.665,3.54,3.54,0,0,0-2.511.875l-.8.7a1.782,1.782,0,0,0-.61,1.411v0l.043.757a1.065,1.065,0,0,1-.3.8l-6.246,6.417a.908.908,0,0,0-.243.674,1.043,1.043,0,0,0,1.057,1.014q.042,0,.083,0a.908.908,0,0,0,.641-.323l5.62-6.969a1.065,1.065,0,0,1,.757-.39Zm-1.057.147-5.62,6.968a.525.525,0,0,1-.372.182.659.659,0,0,1-.724-.642.525.525,0,0,1,.135-.39l6.246-6.416a1.453,1.453,0,0,0,.4-1.089L63.3,9.5a1.4,1.4,0,0,1,.479-1.1l.8-.7a3.158,3.158,0,0,1,2.239-.78.413.413,0,0,1,.387.343A3.157,3.157,0,0,1,66.7,9.572l-.6.878a1.4,1.4,0,0,1-1.039.608L64.3,11.1a1.453,1.453,0,0,0-1.033.533Zm0,0" transform="translate(-54.756 -6.371)" fill="#005d95"/><path d="M294.924,290.765l-4.188-3.814a.193.193,0,1,0-.26.285l4.187,3.814a.525.525,0,0,1,.159.382.659.659,0,0,1-.684.684.525.525,0,0,1-.381-.158l-3.732-4.1a.193.193,0,1,0-.285.26l3.733,4.1a.908.908,0,0,0,.658.283h.02a1.045,1.045,0,0,0,1.057-1.078.908.908,0,0,0-.284-.659Zm0,0" transform="translate(-282.404 -279.698)" fill="#005d95"/><path d="M2.331,5.581A1.787,1.787,0,0,0,3.5,6.054l.758,0A1.065,1.065,0,0,1,5.04,6.4l.334.367a.193.193,0,1,0,.285-.26l-.334-.367A1.453,1.453,0,0,0,4.263,5.67l-.756,0A1.4,1.4,0,0,1,2.6,5.306L.4,2.694A.067.067,0,0,1,.5,2.6l2,2a.507.507,0,0,0,.717,0l.235-.235h0l.417-.417h0l.235-.235a.508.508,0,0,0,0-.717l-2-2A.067.067,0,0,1,2.2.9L4.808,3.1A1.4,1.4,0,0,1,5.171,4l0,.756a1.454,1.454,0,0,0,.47,1.063L6,6.149a.193.193,0,1,0,.26-.285L5.9,5.538a1.065,1.065,0,0,1-.344-.779l0-.758s0,0,0,0a1.787,1.787,0,0,0-.473-1.169l-.018-.017L2.445.606a.453.453,0,0,0-.611.666l2,2a.121.121,0,0,1,0,.171l-.1.1L1.506,1.313a.193.193,0,0,0-.273.273L3.462,3.815l-.144.144L1.089,1.731A.193.193,0,0,0,.816,2L3.044,4.232l-.1.1a.121.121,0,0,1-.171,0l-2-2a.453.453,0,0,0-.666.612L2.314,5.564Zm0,0" transform="translate(-0.002 -0.499)" fill="#005d95"/></g></g></svg>