<svg xmlns="http://www.w3.org/2000/svg" width="29" height="29" viewBox="0 0 29 29"><g transform="translate(2)"><circle cx="14.5" cy="14.5" r="14.5" transform="translate(-2)" fill="#e1e1e1"/><g transform="translate(8.418 5)"><g transform="translate(0 0)"><g transform="translate(0 0)"><path d="M71.339,133.349H69.349a.765.765,0,0,1-.764-.764v-3.056a1.528,1.528,0,1,0-3.056,0v4.2a2.663,2.663,0,0,0,.809,1.91h-.809a.765.765,0,0,1-.764-.764v-6.495a.382.382,0,1,0-.764,0v6.495a1.53,1.53,0,0,0,1.528,1.528h.764v4.585H65.146a.382.382,0,1,0,0,.764H68.2a.382.382,0,1,0,0-.764H67.056v-4.585h3.056v4.16a1.189,1.189,0,0,0,2.369.137l.676-5.321a1.83,1.83,0,0,0-1.819-2.033Z" transform="translate(-64 -123.415)" fill="#006eb3"/><circle cx="1.91" cy="1.91" r="1.91" transform="translate(1.528)" fill="#006eb3"/></g></g></g></g></svg>