<svg xmlns="http://www.w3.org/2000/svg" width="31.659" height="25.746" viewBox="0 0 31.659 25.746"><rect width="30.661" height="2.941" transform="translate(0.998 22.805)" fill="#002a44"/><path d="M140.168,228.944a2.306,2.306,0,0,0-.02-.852,20.187,20.187,0,0,0-2.576-4.234c-1.821-1.877-3.9-2.549-6.313-3.185l-3-.788a.044.044,0,0,1-.026-.018l-5.464-7.97a.762.762,0,0,0-.353-.281l-1.525-.591a.458.458,0,0,0-.493.107.494.494,0,0,0-.115.505l2.256,6.671a.046.046,0,0,1-.01.045.043.043,0,0,1-.043.013l-7.212-1.9-.108-.029a5.563,5.563,0,0,1-3.251-2.471l-1.805-2.951a.924.924,0,0,0-.371-.355.821.821,0,0,0-.827.06.877.877,0,0,0-.377.761l.217,5.18A2.1,2.1,0,0,0,110,218.511l1.832.8,10.527,4.421,14.875,6.247C138.694,230.614,139.951,230.147,140.168,228.944Z" transform="translate(-108.54 -210.579)" fill="#002a44"/><path d="M454.96,488.7l-4.541-1.863-3.254,2.044a.352.352,0,0,0-.064.545l.311.317a1.764,1.764,0,0,0,1.641.487Z" transform="translate(-439.119 -473.396)" fill="#002a44"/></svg>