<svg xmlns="http://www.w3.org/2000/svg" width="90" height="90" viewBox="0 0 90 90">
  <g id="bnb-w">
    <path id="Path_2022" data-name="Path 2022" d="M14.83,37.887,32.284,20.378,49.747,37.9,59.9,27.708,32.284,0,4.674,27.7Z" transform="translate(12.709)" fill="#fff"/>
    <rect id="Rectangle_1037" data-name="Rectangle 1037" width="14.408" height="14.409" transform="translate(10.189 34.81) rotate(45)" fill="#fff"/>
    <path id="Path_2023" data-name="Path 2023" d="M14.841,14.385,32.295,31.894,49.757,14.377,59.919,24.559l0,.006L32.295,52.273l-27.61-27.7L4.67,24.56Z" transform="translate(12.698 37.727)" fill="#fff"/>
    <rect id="Rectangle_1038" data-name="Rectangle 1038" width="14.409" height="14.408" transform="translate(90 45.003) rotate(135)" fill="#fff"/>
    <path id="Path_2024" data-name="Path 2024" d="M30.126,19.894h0L19.792,9.555l-7.64,7.64h0l-.877.878L9.462,19.884h0l-.014.014.014.015L19.792,30.243,30.13,19.9l0-.006Z" transform="translate(25.201 25.101)" fill="#fff"/>
  </g>
</svg>
