<svg xmlns="http://www.w3.org/2000/svg" width="21.086" height="21.086" viewBox="0 0 21.086 21.086"><g transform="translate(0)"><path d="M21.161,16.756a4.393,4.393,0,1,1-4.393-4.393,4.393,4.393,0,0,1,4.393,4.393Z" transform="translate(-6.252 -6.25)" fill="#fafafa"/><path d="M10.757,10.706A6.151,6.151,0,0,1,21,13.321h4.617v-6.2A2.543,2.543,0,0,0,23.04,4.535H7.225a2.637,2.637,0,0,0-2.69,2.581v6.2H9.207A6.067,6.067,0,0,1,10.757,10.706ZM23.864,9.1a.7.7,0,0,1-.7.7H21.053a.7.7,0,0,1-.7-.7V7a.7.7,0,0,1,.7-.7h2.109a.7.7,0,0,1,.7.7Z" transform="translate(-4.535 -4.535)" fill="#fafafa"/><path d="M19.455,22.361a6.17,6.17,0,0,1-8.7,0,6.167,6.167,0,0,1-1.8-4.33H4.535v7.853a2.73,2.73,0,0,0,2.69,2.69H23.04a2.637,2.637,0,0,0,2.581-2.69V18.035H21.256A6.162,6.162,0,0,1,19.455,22.361Z" transform="translate(-4.535 -7.492)" fill="#fafafa"/></g></svg>