<svg xmlns="http://www.w3.org/2000/svg" width="20.138" height="20.138" viewBox="0 0 20.138 20.138"><g transform="translate(-2.25 -2.25)"><path d="M21.669,3.688H19.511V2.25H18.073V3.688H6.565V2.25H5.127V3.688H2.969l-.719.719V21.669l.719.719h18.7l.719-.719V4.408ZM20.95,20.95H3.688V8H20.95Zm0-14.384H3.688V5.127H20.95ZM6.565,12.319H5.127v1.438H6.565ZM5.127,15.2H6.565v1.438H5.127Zm1.438,2.877H5.127v1.438H6.565Zm2.877-5.754h1.438v1.438H9.442ZM10.881,15.2H9.442v1.438h1.438ZM9.442,18.073h1.438v1.438H9.442Zm1.438-8.631H9.442v1.438h1.438Zm2.877,2.877H15.2v1.438H13.757ZM15.2,15.2H13.757v1.438H15.2Zm-1.438,2.877H15.2v1.438H13.757ZM15.2,9.442H13.757v1.438H15.2Zm2.877,2.877h1.438v1.438H18.073ZM19.511,15.2H18.073v1.438h1.438ZM18.073,9.442h1.438v1.438H18.073Z" fill="#666" fill-rule="evenodd"/></g></svg>