<svg xmlns="http://www.w3.org/2000/svg" width="23.188" height="13.715" viewBox="0 0 23.188 13.715"><path d="M172.788,357.288c-.04.236-.078.472-.12.707a5.5,5.5,0,0,1-1.694,3.152,5.638,5.638,0,0,1-3.342,1.556,5.765,5.765,0,0,1-5.038-1.957c-.046-.05-.092-.1-.139-.148a.3.3,0,0,0-.058-.027l-1.225,1.818-1.249-1.855c-.1.121-.18.228-.271.326a5.8,5.8,0,0,1-7.71.7,5.669,5.669,0,0,1-2.225-3.571c-.035-.185-.078-.37-.117-.556v-.963c.045-.242.085-.485.134-.726a5.792,5.792,0,0,1,.9-2.111.37.37,0,0,0,.041-.382c-.1-.233-.164-.479-.272-.706a5.007,5.007,0,0,0-.8-1.3v-.074c1.179,0,2.357.014,3.536,0a1.179,1.179,0,0,0,.51-.233,12.571,12.571,0,0,1,2.714-1.206,15.777,15.777,0,0,1,4.646-.715,15.574,15.574,0,0,1,3.747.392,13.711,13.711,0,0,1,3.976,1.612.966.966,0,0,0,.47.125c1.055.012,2.111.009,3.166.01h.393c-.148.244-.3.444-.4.661q-.353.73-.667,1.478a.416.416,0,0,0,.053.323,6.424,6.424,0,0,1,.921,2.145c.043.21.083.421.124.63Zm-1.185-.346a4.613,4.613,0,1,0-1.35,3.275,4.591,4.591,0,0,0,1.35-3.275Zm-16.186-4.652a4.626,4.626,0,1,0,4.617,4.692A4.642,4.642,0,0,0,155.416,352.29Zm.33-1.225a6.077,6.077,0,0,1,3.567,1.549,5.953,5.953,0,0,1,1.871,3.392,6.013,6.013,0,0,1,5.39-4.927A14.629,14.629,0,0,0,155.746,351.064Z" transform="translate(-149.6 -349.021)" fill="#002a44"/><path d="M541,486.646a2.863,2.863,0,1,1,2.9,2.856A2.843,2.843,0,0,1,541,486.646Zm2.868,1.858a1.87,1.87,0,0,0,.005-3.74,1.87,1.87,0,1,0,0,3.74Z" transform="translate(-526.502 -478.788)" fill="#002a44"/><path d="M229.778,483.759a2.861,2.861,0,1,1-.044,5.723,2.861,2.861,0,0,1,.044-5.723Zm0,4.725a1.87,1.87,0,1,0-1.885-1.865A1.888,1.888,0,0,0,229.783,488.485Z" transform="translate(-224.037 -478.768)" fill="#002a44"/><path d="M594.905,536.226a.944.944,0,1,1-.935-.948A.948.948,0,0,1,594.905,536.226Z" transform="translate(-576.592 -528.379)" fill="#002a44"/><path d="M279.729,536.961A.925.925,0,0,1,278.8,536a.935.935,0,0,1,.963-.939.967.967,0,0,1,.952.977A.948.948,0,0,1,279.729,536.961Z" transform="translate(-274.009 -528.168)" fill="#002a44"/></svg>