<svg xmlns="http://www.w3.org/2000/svg" width="29" height="29" viewBox="0 0 29 29"><g transform="translate(-47.691 0.02)"><path d="M14.5,0A14.5,14.5,0,1,1,0,14.5,14.5,14.5,0,0,1,14.5,0Z" transform="translate(47.691 -0.02)" fill="#e1e1e1"/><path d="M129.467,5.026h-1.395V1.111h.666V0h-5.406V1.111H124V5.026H122.6a1.569,1.569,0,0,0-1.568,1.568V16.6A1.569,1.569,0,0,0,122.6,18.17h.654v.79h1.111v-.79H127.7v.79h1.111v-.79h.654a1.569,1.569,0,0,0,1.568-1.568V6.594a1.569,1.569,0,0,0-1.568-1.568Zm-5.1,10.6h-1.111V7.569h1.111Zm2.222,0H125.48V7.569h1.111Zm.37-10.6H125.11V1.111h1.851Zm1.851,10.6H127.7V7.569h1.111Z" transform="translate(-64.594 4.98)" fill="#006eb3"/></g></svg>