<svg width="24" height="24" viewBox="0 0 24 24" fill="none" xmlns="http://www.w3.org/2000/svg">
<g clip-path="url(#clip0_5842_12480)">
<path d="M20.5319 18.3044L13.4738 11.2463L5.2275 3H4.58305L4.45146 3.33437C4.10415 4.21693 3.95576 5.11961 4.02238 5.94469C4.09832 6.88519 4.45561 7.69944 5.05569 8.29952L11.4932 14.737L12.3423 13.8879L18.2937 20.5427C18.8857 21.1348 19.9047 21.1699 20.5319 20.5427C21.149 19.9256 21.149 18.9215 20.5319 18.3044Z" fill="#1E2E5E"/>
<path d="M8.51045 13.2461L3.46866 18.2879C2.85159 18.905 2.85159 19.909 3.46866 20.5261C4.05485 21.1123 5.06893 21.1641 5.70688 20.5261L10.7487 15.4843L8.51045 13.2461Z" fill="#1E2E5E"/>
<path d="M20.2357 5.99704L17.3757 8.857L16.6296 8.11092L19.4896 5.25092L18.7435 4.50483L15.8835 7.3648L15.1375 6.61871L17.9974 3.75875L17.2514 3.0127L13.521 6.74313C13.0646 7.19949 12.7921 7.80545 12.7536 8.44944C12.7438 8.6126 12.7069 8.77309 12.6455 8.92573L15.0688 11.349C15.2214 11.2876 15.382 11.2507 15.5451 11.2409C16.1891 11.2025 16.795 10.9299 17.2514 10.4736L20.9818 6.74316L20.2357 5.99704Z" fill="#1E2E5E"/>
</g>
<defs>
<clipPath id="clip0_5842_12480">
<rect width="18" height="18" fill="white" transform="translate(3 3)"/>
</clipPath>
</defs>
</svg>
