<svg viewBox="0 0 24 24" xmlns="http://www.w3.org/2000/svg" aria-labelledby="icon--rCk59Qc7i8FFc8RnY72V" class="shrink-0 border border-transparent text-ink-500 fill-current stroke-current stroke-0 duration-150 ease-in-out" width="24" height="24" aria-hidden="true" focusable="false"><path d="M20.4 3.024H18V2.4a1.2 1.2 0 1 0-2.4 0v.624H8.4V2.4a1.2 1.2 0 0 0-2.4 0v.624H3.6a2.4 2.4 0 0 0-2.4 2.4V20.4a2.4 2.4 0 0 0 2.4 2.4h16.8a2.4 2.4 0 0 0 2.4-2.4V5.424a2.4 2.4 0 0 0-2.4-2.4zm.576 6.576v10.176a1.2 1.2 0 0 1-1.2 1.2h-15.6a1.2 1.2 0 0 1-1.2-1.2V9.6a1.2 1.2 0 0 1 1.2-1.2h15.6a1.2 1.2 0 0 1 1.2 1.2z"></path><path d="M11.1 10.2H9.3V12h1.8zM11.1 13.788H9.3v1.8h1.8zM11.1 17.388H9.3v1.8h1.8zM14.7 10.2h-1.8V12h1.8zM14.7 13.788h-1.8v1.8h1.8zM14.7 17.388h-1.8v1.8h1.8zM18.288 10.2h-1.8V12h1.8zM18.288 13.788h-1.8v1.8h1.8zM7.512 13.788h-1.8v1.8h1.8zM7.512 17.388h-1.8v1.8h1.8z"></path></svg>