<svg viewBox="0 0 24 24" xmlns="http://www.w3.org/2000/svg" aria-labelledby="icon-bj93j4uW6_OHEuiPbo_K6" class="text-ink-500 fill-current stroke-current stroke-0 duration-150 ease-in-out" width="24" height="24" aria-hidden="true" focusable="false"><path d="M11.99 1a1.222 1.222 0 0 0-1.222 1.222v2.445a1.222 1.222 0 0 0 2.444 0V3.53A8.556 8.556 0 1 1 5.94 5.974a1.227 1.227 0 0 0-1.723-1.747A11 11 0 1 0 11.99 1z"></path><path d="M10.152 13.752a2.546 2.546 0 1 0 3.6-3.6 32.771 32.771 0 0 0-5.844-3.024.588.588 0 0 0-.78.78 32.772 32.772 0 0 0 3.024 5.844z"></path></svg>