<svg viewBox="0 0 24 24" xmlns="http://www.w3.org/2000/svg" aria-labelledby="icon-fC6Vi5FMYvb9JHVBdjG3A" class="text-ink-500 fill-current stroke-current stroke-0 duration-150 ease-in-out" width="24" height="24" aria-hidden="true" focusable="false"><path d="M18.055 14.86s-1.198-.587-.958-3.166C17.337 9.116 18.966 1 11.982 1S6.58 9.103 6.867 11.694c.288 2.592-.958 3.166-.958 3.166s-3.366 0-3.905 6.368a1.694 1.694 0 0 0 .425 1.234A1.63 1.63 0 0 0 3.597 23h16.77a1.602 1.602 0 0 0 1.192-.525 1.667 1.667 0 0 0 .437-1.247c-.575-6.32-3.94-6.368-3.94-6.368zM7.873 9.91c-.227-.22-.563-2.151 0-2.004.156-.648.515-2.543 1.893-2.543 1.377 0 5.99 3.007 5.99 3.007s.12-.55.574-.416c.456.135 0 2.25-.311 2.25s-.42-.245-.42-.245-.79 3.899-3.593 3.899c-2.78 0-3.69-3.862-3.69-3.862a.308.308 0 0 1-.443-.086zM9 15.777a3.586 3.586 0 0 1-.599-.795.999.999 0 0 0 .456-.23c.13-.116.23-.264.287-.43.082-.203.138-.417.168-.635.183.185.38.356.587.513a3.55 3.55 0 0 0 2.084.782 3.55 3.55 0 0 0 2.084-.782 5.51 5.51 0 0 0 .587-.513c.03.218.086.432.168.635.058.166.157.314.287.43a1 1 0 0 0 .456.23c-.163.292-.364.56-.6.795-.386.403-.851.72-1.365.93s-1.064.31-1.617.292c-.553.017-1.103-.083-1.617-.293s-.978-.527-1.366-.93zm8.697 5.573a.358.358 0 0 1-.102.25.344.344 0 0 1-.245.104h-3.594c-.09-.003-.175-.042-.238-.108s-.098-.154-.098-.246v-.709c0-.092.035-.18.098-.246s.148-.105.238-.108h3.594c.092 0 .18.037.245.103a.358.358 0 0 1 .102.251z"></path></svg>