<svg viewBox="0 0 24 24" xmlns="http://www.w3.org/2000/svg" aria-labelledby="icon-XlI8Tj4N-62C7_6M92kCh" class="text-ink-500 fill-current stroke-current stroke-0 duration-150 ease-in-out" width="24" height="24" aria-hidden="true" focusable="false"><path clip-rule="evenodd" d="M17.955 1.55A2.9 2.9 0 0 0 15.904.7H8.229a2.9 2.9 0 0 0-2.9 2.9v16.8a2.9 2.9 0 0 0 2.9 2.9h7.675a2.897 2.897 0 0 0 2.9-2.9V3.6a2.9 2.9 0 0 0-.85-2.05Zm-7.2 2.265h2.626a1.7 1.7 0 0 0 1.175-.47l.465-.445h.883a.701.701 0 0 1 .7.7v16.8a.701.701 0 0 1-.7.7H8.229a.701.701 0 0 1-.7-.7V3.6a.701.701 0 0 1 .7-.7h.891l.454.438a1.7 1.7 0 0 0 1.18.477Z"></path></svg>