<svg viewBox="0 0 40 40" fill="none" xmlns="http://www.w3.org/2000/svg" aria-labelledby="icon-B0yDzmAYhuPzlsL5HpD94" class="" width="40" height="40" aria-hidden="true"><path d="M30.65 20.59c0-2.05-.62-4.06-1.8-5.77A10.6 10.6 0 0 0 24.09 11a10.92 10.92 0 0 0-11.61 2.25 10.13 10.13 0 0 0-2.31 11.31c.8 1.9 2.17 3.52 3.92 4.66a10.86 10.86 0 0 0 13.45-1.29 10.37 10.37 0 0 0 3.12-7.34zm-11.45 6.9V26.2h-.26a3 3 0 0 1-2.08-.84 2.84 2.84 0 0 1-.87-2.03c0-.21.08-.41.24-.56a.81.81 0 0 1 1.13 0c.15.15.24.35.24.56 0 .34.14.68.4.92.25.25.59.39.94.39h1.79a1.71 1.71 0 0 0 1.21-.51 1.63 1.63 0 0 0 .46-1.21 1.71 1.71 0 0 0-.6-1.12 1.8 1.8 0 0 0-1.21-.43h-1.32a.78.78 0 0 1-.12-.02 3.38 3.38 0 0 1-2.16-.92 3.21 3.21 0 0 1-1-2.08 3.1 3.1 0 0 1 .9-2.38c.6-.61 1.43-.97 2.3-.99v-1.3c0-.2.1-.4.24-.55a.81.81 0 0 1 1.14 0c.15.15.23.35.23.56v1.29h.26a3 3 0 0 1 2.08.84c.56.54.87 1.27.87 2.03 0 .21-.08.41-.24.56a.81.81 0 0 1-1.13 0 .77.77 0 0 1-.24-.56c0-.34-.14-.68-.4-.92-.24-.25-.59-.39-.94-.39h-1.79a1.71 1.71 0 0 0-1.21.51 1.63 1.63 0 0 0-.46 1.21c.05.44.26.83.6 1.12.33.29.77.44 1.21.43h1.32a3.38 3.38 0 0 1 2.28.94c.58.55.94 1.3 1 2.08a3.1 3.1 0 0 1-.9 2.38c-.6.61-1.43.97-2.3.99v1.3c0 .2-.09.4-.24.55a.81.81 0 0 1-1.14 0 .77.77 0 0 1-.23-.56z" fill="#0FA88A"></path><path d="m30.83 31.4-4.76-.66a.82.82 0 0 0-.6.14.77.77 0 0 0-.16 1.1.8.8 0 0 0 .53.3l2.88.41a15.47 15.47 0 0 1-17.24.14 14.88 14.88 0 0 1-5.63-6.88 14.44 14.44 0 0 1-.63-8.77.77.77 0 0 0-.1-.6.82.82 0 0 0-1.1-.25.79.79 0 0 0-.37.49 15.97 15.97 0 0 0 3.18 13.92 16.75 16.75 0 0 0 5.85 4.58 17.18 17.18 0 0 0 16.96-1.34l-.4 2.73c-.04.2.02.41.15.58a.81.81 0 0 0 .64.31c.2 0 .38-.07.53-.19.14-.12.24-.3.27-.48l.68-4.64a.77.77 0 0 0-.15-.58.8.8 0 0 0-.53-.3zm3.88-4.64a.83.83 0 0 0-.61-.03.8.8 0 0 0-.46.4c-.33.64-.71 1.27-1.14 1.87a.77.77 0 0 0 .5 1.22.82.82 0 0 0 .82-.32c.47-.67.9-1.36 1.26-2.09.1-.18.1-.4.04-.6a.8.8 0 0 0-.4-.45zM20 4.22c-2.47 0-4.9.53-7.14 1.56l.76-2.36a.77.77 0 0 0-.06-.6.8.8 0 0 0-.47-.38.82.82 0 0 0-.61.05.79.79 0 0 0-.4.46l-1.34 4.19a.74.74 0 0 0 .01.55l.04.1.01.02.07.07c.04.06.09.1.14.15l.06.03c.05.04.12.07.18.1l4.34 1.32a.83.83 0 0 0 .86-.24.78.78 0 0 0 .18-.57.77.77 0 0 0-.28-.53.81.81 0 0 0-.28-.15l-2.55-.78a15.53 15.53 0 0 1 14.62.88 14.96 14.96 0 0 1 5.17 5.36 14.5 14.5 0 0 1 1.48 10.53.76.76 0 0 0 .1.6.8.8 0 0 0 .5.34.84.84 0 0 0 .68-.15.78.78 0 0 0 .29-.43 16.07 16.07 0 0 0-4.49-15.32A17.05 17.05 0 0 0 20 4.22zM7.38 11.8a.82.82 0 0 0 .63-.3l.1-.11c.1-.15.15-.2.31-.39a.77.77 0 0 0-.07-1.1.82.82 0 0 0-1.13.07c-.2.21-.25.28-.39.45l-.08.11a.77.77 0 0 0 .2 1.15c.13.08.28.12.43.12zm-2.37 3.28a.8.8 0 0 0 .76-.06c.13-.09.24-.2.3-.35l.5-1.02a.77.77 0 0 0-.32-1.06.82.82 0 0 0-1.1.33c-.2.36-.38.74-.55 1.13a.77.77 0 0 0 .15.85.8.8 0 0 0 .26.18z" fill="#323C52"></path></svg>