<svg viewBox="0 0 24 24" xmlns="http://www.w3.org/2000/svg" aria-labelledby="icon-czhwdcb6AAxWTMVAQBKLJ" class="mt-0.5 shrink-0 text-red-600 fill-current stroke-current stroke-0 duration-150 ease-in-out" width="24" height="24" aria-hidden="true" fill="#f00" focusable="false"><path d="m12.852 12 7.2-7.2a.6.6 0 0 0-.42-1.023.6.6 0 0 0-.42.171l-7.2 7.2-7.2-7.2a.611.611 0 0 0-.876.852l7.2 7.2-7.2 7.2a.6.6 0 0 0 .432 1.02.602.602 0 0 0 .432-.168l7.2-7.2 7.2 7.2a.576.576 0 0 0 .84 0 .576.576 0 0 0 0-.84z"></path></svg>