<svg viewBox="0 0 24 24" xmlns="http://www.w3.org/2000/svg" aria-labelledby="icon-z5XQV3YSDAB9twXZxhXOb" class="text-ink-500 fill-current stroke-current stroke-0 duration-150 ease-in-out" width="24" height="24" aria-hidden="true" focusable="false"><path d="M19.826 9.644c-.136-.26-.348-.48-.61-.632s-.567-.232-.876-.229h-2.95L17.1 3.13a1.562 1.562 0 0 0-.085-1.14 1.705 1.705 0 0 0-.852-.816 1.832 1.832 0 0 0-1.166-.131 1.748 1.748 0 0 0-.988.597L4.317 12.715a1.5 1.5 0 0 0-.14 1.631c.137.26.35.479.612.631s.566.232.875.23H8.56l-1.702 5.655c-.118.376-.089.78.08 1.138s.47.648.846.818c.251.118.527.18.808.182.267.002.53-.055.768-.168.238-.113.443-.278.6-.48l9.693-11.076a1.453 1.453 0 0 0 .172-1.631zM9.412 19.778l1.615-5.33c.044-.15.05-.308.018-.461s-.1-.297-.2-.421a1.064 1.064 0 0 0-.376-.296 1.13 1.13 0 0 0-.476-.11H6.654l7.884-8.967-1.605 5.33a.955.955 0 0 0 .173.882c.1.125.23.228.38.298.15.07.314.107.481.107h3.328z"></path></svg>