<svg width="24" height="24" viewBox="0 0 24 24" fill="none" xmlns="http://www.w3.org/2000/svg">
<path fill-rule="evenodd" clip-rule="evenodd" d="M17.7139 5.21418H13.7853C13.7853 4.22796 12.9858 3.42847 11.9996 3.42847C11.0134 3.42847 10.2139 4.22796 10.2139 5.21418H6.2853C5.69356 5.21418 5.21387 5.69388 5.21387 6.28561C5.21387 6.87734 5.69356 7.35704 6.2853 7.35704L6.90672 18.882C6.95801 19.8304 7.74268 20.5727 8.69244 20.5713H15.3067C16.2565 20.5727 17.0411 19.8304 17.0924 18.882L17.7139 7.35704C18.3056 7.35704 18.7853 6.87734 18.7853 6.28561C18.7853 5.69388 18.3056 5.21418 17.7139 5.21418ZM10.9282 16.9999C10.9282 17.3943 10.6084 17.7141 10.2139 17.7141C9.81941 17.7141 9.49962 17.3943 9.49962 16.9999V9.857C9.49962 9.46251 9.81941 9.14272 10.2139 9.14272C10.6084 9.14272 10.9282 9.46251 10.9282 9.857V16.9999ZM14.4997 16.9999C14.4997 17.3943 14.1799 17.7141 13.7854 17.7141C13.3909 17.7141 13.0711 17.3943 13.0711 16.9999V9.857C13.0711 9.46251 13.3909 9.14272 13.7854 9.14272C14.1799 9.14272 14.4997 9.46251 14.4997 9.857V16.9999Z" fill="#1E2E5E"/>
</svg>
