<svg xmlns="http://www.w3.org/2000/svg" width="27" height="26" viewBox="0 0 27 26"><g transform="translate(-89)"><rect width="27" height="26" rx="2" transform="translate(89)" fill="#f5f5f5"/><g transform="translate(94.926 7.016)"><path d="M14.957,64H1.36A1.361,1.361,0,0,0,0,65.36V70.8a1.361,1.361,0,0,0,1.36,1.36h13.6a1.361,1.361,0,0,0,1.36-1.36V65.36A1.361,1.361,0,0,0,14.957,64Zm.68,6.8a.681.681,0,0,1-.68.68H1.36a.681.681,0,0,1-.68-.68V65.36a.681.681,0,0,1,.68-.68h13.6a.681.681,0,0,1,.68.68Z" transform="translate(0 -64)" fill="#005d95"/><path d="M55.924,213.333H43.006a.34.34,0,0,0-.34.34v1.36a.34.34,0,0,0,.34.34H55.924a.34.34,0,0,0,.34-.34v-1.36a.34.34,0,0,0-.34-.34Zm-.34,1.36H43.346v-.68H55.584Z" transform="translate(-41.306 -208.574)" fill="#005d95"/><path d="M43.006,128.679H53.2a.34.34,0,1,0,0-.68h-10.2a.34.34,0,0,0,0,.68Z" transform="translate(-41.306 -125.959)" fill="#005d95"/><path d="M427.347,106.667a.68.68,0,1,0,.68.68A.681.681,0,0,0,427.347,106.667Z" transform="translate(-413.069 -105.307)" fill="#005d95"/><path d="M363.346,341.673a.34.34,0,1,0-.68,0,2.971,2.971,0,0,0,.376,1.512,2.3,2.3,0,0,1,.3,1.208.34.34,0,0,0,.68,0,2.971,2.971,0,0,0-.376-1.512A2.3,2.3,0,0,1,363.346,341.673Z" transform="translate(-351.108 -332.495)" fill="#005d95"/><path d="M107.686,341.333a.34.34,0,0,0-.34.34,2.3,2.3,0,0,1-.3,1.208,2.972,2.972,0,0,0-.376,1.512.34.34,0,1,0,.68,0,2.3,2.3,0,0,1,.3-1.208,2.971,2.971,0,0,0,.376-1.512A.34.34,0,0,0,107.686,341.333Z" transform="translate(-103.267 -332.495)" fill="#005d95"/><path d="M245.673,341.333a.34.34,0,0,0-.34.34v2.72a.34.34,0,1,0,.68,0v-2.72a.34.34,0,0,0-.34-.34Z" transform="translate(-237.514 -332.495)" fill="#005d95"/></g></g></svg>