<svg xmlns="http://www.w3.org/2000/svg" width="32.603" height="32.62" viewBox="0 0 32.603 32.62"><g transform="translate(-0.1 0.002)"><path d="M136.712,144.269a9.272,9.272,0,0,1-1.15-.309,5.239,5.239,0,0,1-3.394-4.052,4.072,4.072,0,0,1-.055-.762q-.013-10.675-.014-21.351a4.966,4.966,0,0,1,2.135-4.057,5.3,5.3,0,0,1,3.344-1.051q8.229.013,16.459-.006h.137a.6.6,0,0,1-.054.077l-2.978,2.952a.4.4,0,0,1-.309.12c-4.133.005-8.265.026-12.4.015a3.246,3.246,0,0,0-3.2,3.112c0,.143.009.286.009.432q0,9.078-.005,18.156a3.714,3.714,0,0,0,.28,1.654,3.089,3.089,0,0,0,2.338,1.853,7.987,7.987,0,0,0,1.311.05l17.94,0a3.323,3.323,0,0,0,2.153-.639,3.06,3.06,0,0,0,1.253-2.508q0-6.207,0-12.415a.414.414,0,0,1,.127-.322q1.477-1.476,2.948-2.958c.019-.019.04-.036.077-.067a1.364,1.364,0,0,1,.015.137c-.005,5.536-.039,11.072-.006,16.608a5.45,5.45,0,0,1-4.321,5.293.848.848,0,0,0-.107.036Z" transform="translate(-132 -111.65)" fill="#006eb3"/><path d="M517.36,170.1l11.057-11,4.994,5.077-11.079,11Z" transform="translate(-503.467 -156.408)" fill="#006eb3"/><path d="M850,85.791c.465-.489.9-.98,1.376-1.44a1.538,1.538,0,0,1,1.234-.477.728.728,0,0,1,.349.124,19.148,19.148,0,0,1,2.572,2.382c.338.352.659.722,1.017,1.053a1.231,1.231,0,0,1,.243,1.366,5.019,5.019,0,0,1-.4.611,1.469,1.469,0,0,1-.2.219c-.411.388-.823.774-1.247,1.171C853.294,89.111,851.513,87.543,850,85.791Z" transform="translate(-824.198 -83.87)" fill="#006eb3"/><path d="M441.539,487.49l5.052,4.976c-2.339.731-4.69,1.341-7.07,2.041C440.2,492.151,440.862,489.841,441.539,487.49Z" transform="translate(-428.414 -473.041)" fill="#006eb3"/></g></svg>