<svg width="24" height="24" viewBox="0 0 24 24" fill="none" xmlns="http://www.w3.org/2000/svg">
<g clip-path="url(#clip0_5842_12481)">
<path d="M20.3407 13.6664C20.1385 13.6264 19.9399 13.7573 19.8995 13.9572C19.0871 17.9313 15.5175 20.8146 11.4111 20.8146C6.63571 20.8146 2.74995 16.9714 2.74995 12.2484C2.74995 7.52532 6.63571 3.68216 11.4111 3.68216C13.6646 3.68216 15.8226 4.55478 17.4328 6.09277H16.4622C16.2564 6.09277 16.0873 6.26002 16.0873 6.46363C16.0873 6.66724 16.2564 6.83449 16.4622 6.83449H18.3445C18.5503 6.83449 18.7194 6.66724 18.7194 6.46363V4.60204C18.7194 4.39843 18.5503 4.23118 18.3445 4.23118C18.1386 4.23118 17.9695 4.39843 17.9695 4.60204V5.57647C16.2233 3.89304 13.8668 2.94043 11.4111 2.94043C8.89659 2.94043 6.53278 3.90758 4.75716 5.66737C2.97787 7.42351 2 9.7614 2 12.2484C2 14.7353 2.97787 17.0732 4.75716 18.8294C6.53645 20.5892 8.89659 21.5563 11.4111 21.5563C13.5948 21.5563 15.727 20.8 17.407 19.422C19.065 18.0658 20.212 16.1752 20.6348 14.1027C20.6752 13.9027 20.5465 13.7064 20.3407 13.6664Z" fill="#1E2E5E"/>
<path d="M20.4461 11.877C20.2403 11.877 20.0713 12.0442 20.0713 12.2478C20.0713 12.3314 20.0713 12.4151 20.0676 12.4951C20.0603 12.6987 20.2256 12.8696 20.4314 12.8768C20.4351 12.8768 20.4388 12.8768 20.4424 12.8768C20.6446 12.8768 20.8099 12.7168 20.8173 12.5169C20.8209 12.426 20.8209 12.3351 20.8209 12.2478C20.8209 12.0442 20.6519 11.877 20.4461 11.877Z" fill="#008000"/>
<path d="M15.0175 14.387C15.0175 14.8377 14.9005 15.2623 14.6665 15.661C14.4412 16.051 14.1032 16.376 13.6525 16.636C13.2105 16.8873 12.6862 17.0347 12.0795 17.078V18.131H11.2475V17.065C10.3808 16.987 9.68315 16.727 9.15448 16.285C8.62582 15.8343 8.35282 15.2277 8.33548 14.465H10.2855C10.3375 15.089 10.6582 15.466 11.2475 15.596V13.113C10.6235 12.957 10.1208 12.801 9.73948 12.645C9.35815 12.489 9.02882 12.2377 8.75148 11.891C8.47415 11.5443 8.33548 11.072 8.33548 10.474C8.33548 9.72 8.60415 9.10467 9.14148 8.628C9.68748 8.15133 10.3895 7.87833 11.2475 7.809V6.756H12.0795V7.809C12.9115 7.87833 13.5745 8.12967 14.0685 8.563C14.5712 8.99633 14.8528 9.59433 14.9135 10.357H12.9505C12.9245 10.1057 12.8335 9.889 12.6775 9.707C12.5302 9.51633 12.3308 9.382 12.0795 9.304V11.761C12.7295 11.9257 13.2408 12.086 13.6135 12.242C13.9948 12.3893 14.3242 12.6363 14.6015 12.983C14.8788 13.321 15.0175 13.789 15.0175 14.387ZM10.2335 10.383C10.2335 10.669 10.3202 10.903 10.4935 11.085C10.6668 11.2583 10.9182 11.4013 11.2475 11.514V9.265C10.9355 9.30833 10.6885 9.42533 10.5065 9.616C10.3245 9.80667 10.2335 10.0623 10.2335 10.383ZM12.0795 15.622C12.4088 15.5613 12.6645 15.427 12.8465 15.219C13.0372 15.011 13.1325 14.7597 13.1325 14.465C13.1325 14.179 13.0415 13.9493 12.8595 13.776C12.6775 13.6027 12.4175 13.4597 12.0795 13.347V15.622Z" fill="#1E2E5E"/>
</g>
<defs>
<clipPath id="clip0_5842_12481">
<rect width="24" height="24" fill="white"/>
</clipPath>
</defs>
</svg>
