<svg width="24" height="24" viewBox="0 0 24 24" fill="none" xmlns="http://www.w3.org/2000/svg">
<path fill-rule="evenodd" clip-rule="evenodd" d="M16.6432 3.42871H7.35749C6.73465 3.42991 6.15743 3.75554 5.83431 4.288C5.51118 4.82047 5.48884 5.48282 5.77534 6.03585L9.2932 12.6787C9.42938 12.9362 9.50049 13.2231 9.50034 13.5144V19.5001C9.50099 19.8916 9.71507 20.2515 10.0587 20.439C10.4024 20.6264 10.8209 20.6115 11.1503 20.4001L14.0075 18.5644C14.3152 18.367 14.501 18.0264 14.5003 17.6609V13.5144C14.5002 13.2231 14.5713 12.9362 14.7075 12.6787L18.2253 6.03585C18.5119 5.48282 18.4895 4.82047 18.1664 4.288C17.8433 3.75554 17.266 3.42991 16.6432 3.42871ZM15.2146 6.64303H8.78605C8.39157 6.64303 8.07177 6.32324 8.07177 5.92875C8.07177 5.53426 8.39157 5.21446 8.78605 5.21446H15.2146C15.6091 5.21446 15.9289 5.53426 15.9289 5.92875C15.9289 6.32324 15.6091 6.64303 15.2146 6.64303Z" fill="#1E2E5E"/>
</svg>
