<svg width="24" height="24" viewBox="0 0 24 24" fill="none" xmlns="http://www.w3.org/2000/svg">
<g clip-path="url(#clip0_5842_12513)">
<path d="M20.0496 10.875C20.108 9.38201 21.5 8.76218 21.5 7.17865C21.5 5.59505 20.8735 4.91994 20.0496 4.125C20.075 5.63385 17.9375 6.82509 17.9375 8.15911C17.9375 9.85917 19.0831 10.3418 20.0496 10.875Z" fill="#1E2E5E"/>
<path d="M16.97 7.50009C17.0089 6.50501 17.9365 6.09185 17.9365 5.03633C17.9365 3.98082 17.519 3.53078 16.97 3.00098C16.9869 4.00664 15.5625 4.80068 15.5625 5.68981C15.5625 6.82303 16.3259 7.14465 16.97 7.50009Z" fill="#1E2E5E"/>
<path d="M19.125 15.5684L20.1084 16.5H21.5V12H19.125V15.5684Z" fill="#1E2E5E"/>
<path d="M17.9375 12H15.3584L17.9375 14.4434V12Z" fill="#1E2E5E"/>
<path d="M2.5 4.59175L10.3208 12.0009H2.5V16.5009H15.0708L19.8208 21.0009L21.5 19.4101L4.17919 3.00098L2.5 4.59175Z" fill="#1E2E5E"/>
</g>
<defs>
<clipPath id="clip0_5842_12513">
<rect width="19" height="18" fill="white" transform="translate(2.5 3)"/>
</clipPath>
</defs>
</svg>
