<svg width="24" height="24" viewBox="0 0 24 24" fill="none" xmlns="http://www.w3.org/2000/svg">
<g clip-path="url(#clip0_20049_281013)">
<path d="M2.69638 8.04457C3.07707 8.04457 3.39276 7.72888 3.39276 7.34819V4.37697L7.87744 8.86165C8.01671 9.00093 8.19313 9.06592 8.36954 9.06592C8.54596 9.06592 8.72238 9.00093 8.86165 8.86165C9.13092 8.59239 9.13092 8.1467 8.86165 7.87744L4.37697 3.39276H7.34819C7.72888 3.39276 8.04457 3.07707 8.04457 2.69638C8.04457 2.31569 7.72888 2 7.34819 2H2.69638C2.31569 2 2 2.31569 2 2.69638V7.34819C2 7.72888 2.31569 8.04457 2.69638 8.04457Z" fill="#666666"/>
<path d="M21.3034 15.9552C20.9227 15.9552 20.607 16.2709 20.607 16.6516V19.6228L15.983 14.9988C15.7138 14.7296 15.2681 14.7296 14.9988 14.9988C14.7296 15.2681 14.7296 15.7138 14.9988 15.983L19.6228 20.607H16.6516C16.2709 20.607 15.9552 20.9227 15.9552 21.3034C15.9552 21.6841 16.2709 21.9998 16.6516 21.9998H21.3034C21.6841 21.9998 21.9998 21.6841 21.9998 21.3034V16.6516C21.9998 16.2616 21.6841 15.9552 21.3034 15.9552Z" fill="#666666"/>
<path d="M8.01671 14.9899L3.39276 19.6138V16.6426C3.39276 16.2619 3.07707 15.9462 2.69638 15.9462C2.31569 15.9462 2 16.2619 2 16.6519V21.3037C2 21.6844 2.31569 22.0001 2.69638 22.0001H7.34819C7.72888 22.0001 8.04457 21.6844 8.04457 21.3037C8.04457 20.923 7.72888 20.6073 7.34819 20.6073H4.37697L9.00093 15.9834C9.2702 15.7141 9.2702 15.2684 9.00093 14.9992C8.73166 14.7206 8.28598 14.7206 8.01671 14.9899Z" fill="#666666"/>
<path d="M21.3037 2H16.6519C16.2712 2 15.9556 2.31569 15.9556 2.69638C15.9556 3.07707 16.2712 3.39276 16.6519 3.39276H19.6232L15.1385 7.87744C14.8692 8.1467 14.8692 8.59239 15.1385 8.86165C15.2777 9.00093 15.4542 9.06592 15.6306 9.06592C15.807 9.06592 15.9834 9.00093 16.1227 8.86165L20.6074 4.37697V7.34819C20.6074 7.72888 20.9231 8.04457 21.3037 8.04457C21.6844 8.04457 22.0001 7.72888 22.0001 7.34819V2.69638C22.0001 2.31569 21.6844 2 21.3037 2Z" fill="#666666"/>
</g>
<defs>
<clipPath id="clip0_20049_281013">
<rect width="20" height="20" fill="white" transform="translate(2 2)"/>
</clipPath>
</defs>
</svg>
